<?xml version="1.0" encoding="utf-8" standalone="no"?>
<!DOCTYPE svg PUBLIC "-//W3C//DTD SVG 1.1//EN"
  "http://www.w3.org/Graphics/SVG/1.1/DTD/svg11.dtd">
<svg xmlns:xlink="http://www.w3.org/1999/xlink" width="806.4pt" height="489.6pt" viewBox="0 0 806.4 489.6" xmlns="http://www.w3.org/2000/svg" version="1.1">
 <metadata>
  <rdf:RDF xmlns:dc="http://purl.org/dc/elements/1.1/" xmlns:cc="http://creativecommons.org/ns#" xmlns:rdf="http://www.w3.org/1999/02/22-rdf-syntax-ns#">
   <cc:Work>
    <dc:type rdf:resource="http://purl.org/dc/dcmitype/StillImage"/>
    <dc:date>2026-06-06T01:57:03.518399</dc:date>
    <dc:format>image/svg+xml</dc:format>
    <dc:creator>
     <cc:Agent>
      <dc:title>Matplotlib v3.10.8, https://matplotlib.org/</dc:title>
     </cc:Agent>
    </dc:creator>
   </cc:Work>
  </rdf:RDF>
 </metadata>
 <defs>
  <style type="text/css">*{stroke-linejoin: round; stroke-linecap: butt}</style>
 </defs>
 <g id="figure_1">
  <g id="patch_1">
   <path d="M 0 489.6 
L 806.4 489.6 
L 806.4 0 
L 0 0 
z
" style="fill: #ffffff"/>
  </g>
  <g id="axes_1">
   <g id="patch_2">
    <path d="M 120.96 66.24 
L 159.84 66.24 
L 159.84 90.72 
L 120.96 90.72 
z
" clip-path="url(#p4631579384)" style="fill: #e8f0fe; stroke: #3b7de0; stroke-width: 1.1; stroke-linejoin: miter"/>
   </g>
   <g id="patch_3">
    <path d="M 159.84 66.24 
L 198.72 66.24 
L 198.72 90.72 
L 159.84 90.72 
z
" clip-path="url(#p4631579384)" style="fill: #e8f0fe; stroke: #3b7de0; stroke-width: 1.1; stroke-linejoin: miter"/>
   </g>
   <g id="patch_4">
    <path d="M 198.72 66.24 
L 237.6 66.24 
L 237.6 90.72 
L 198.72 90.72 
z
" clip-path="url(#p4631579384)" style="fill: #e8f0fe; stroke: #3b7de0; stroke-width: 1.1; stroke-linejoin: miter"/>
   </g>
   <g id="patch_5">
    <path d="M 237.6 66.24 
L 276.48 66.24 
L 276.48 90.72 
L 237.6 90.72 
z
" clip-path="url(#p4631579384)" style="fill: #e8f0fe; stroke: #3b7de0; stroke-width: 1.1; stroke-linejoin: miter"/>
   </g>
   <g id="patch_6">
    <path d="M 456.48 66.24 
L 540 66.24 
L 540 90.72 
L 456.48 90.72 
z
" clip-path="url(#p4631579384)" style="fill: #fef4dc; stroke: #ec9a0e; stroke-width: 1.1; stroke-linejoin: miter"/>
   </g>
   <g id="patch_7">
    <path d="M 540 66.24 
L 623.52 66.24 
L 623.52 90.72 
L 540 90.72 
z
" clip-path="url(#p4631579384)" style="fill: #fef4dc; stroke: #ec9a0e; stroke-width: 1.1; stroke-linejoin: miter"/>
   </g>
   <g id="patch_8">
    <path d="M 623.52 66.24 
L 707.04 66.24 
L 707.04 90.72 
L 623.52 90.72 
z
" clip-path="url(#p4631579384)" style="fill: #fef4dc; stroke: #ec9a0e; stroke-width: 1.1; stroke-linejoin: miter"/>
   </g>
   <g id="patch_9">
    <path d="M 707.04 66.24 
L 790.56 66.24 
L 790.56 90.72 
L 707.04 90.72 
z
" clip-path="url(#p4631579384)" style="fill: #fef4dc; stroke: #ec9a0e; stroke-width: 1.1; stroke-linejoin: miter"/>
   </g>
   <g id="patch_10">
    <path d="M 195.84 180 
L 247.68 180 
L 247.68 208.8 
L 195.84 208.8 
z
" clip-path="url(#p4631579384)" style="fill: #e8f0fe; stroke: #3b7de0; stroke-width: 1.1; stroke-linejoin: miter"/>
   </g>
   <g id="patch_11">
    <path d="M 247.68 180 
L 299.52 180 
L 299.52 208.8 
L 247.68 208.8 
z
" clip-path="url(#p4631579384)" style="fill: #e8f0fe; stroke: #3b7de0; stroke-width: 1.1; stroke-linejoin: miter"/>
   </g>
   <g id="patch_12">
    <path d="M 299.52 180 
L 351.36 180 
L 351.36 208.8 
L 299.52 208.8 
z
" clip-path="url(#p4631579384)" style="fill: #e8f0fe; stroke: #3b7de0; stroke-width: 1.1; stroke-linejoin: miter"/>
   </g>
   <g id="patch_13">
    <path d="M 351.36 180 
L 403.2 180 
L 403.2 208.8 
L 351.36 208.8 
z
" clip-path="url(#p4631579384)" style="fill: #e8f0fe; stroke: #3b7de0; stroke-width: 1.1; stroke-linejoin: miter"/>
   </g>
   <g id="patch_14">
    <path d="M 403.2 180 
L 455.04 180 
L 455.04 208.8 
L 403.2 208.8 
z
" clip-path="url(#p4631579384)" style="fill: #e8f0fe; stroke: #3b7de0; stroke-width: 1.1; stroke-linejoin: miter"/>
   </g>
   <g id="patch_15">
    <path d="M 455.04 180 
L 506.88 180 
L 506.88 208.8 
L 455.04 208.8 
z
" clip-path="url(#p4631579384)" style="fill: #e8f0fe; stroke: #3b7de0; stroke-width: 1.1; stroke-linejoin: miter"/>
   </g>
   <g id="patch_16">
    <path d="M 506.88 180 
L 558.72 180 
L 558.72 208.8 
L 506.88 208.8 
z
" clip-path="url(#p4631579384)" style="fill: #e8f0fe; stroke: #3b7de0; stroke-width: 1.1; stroke-linejoin: miter"/>
   </g>
   <g id="patch_17">
    <path d="M 558.72 180 
L 610.56 180 
L 610.56 208.8 
L 558.72 208.8 
z
" clip-path="url(#p4631579384)" style="fill: #e8f0fe; stroke: #3b7de0; stroke-width: 1.1; stroke-linejoin: miter"/>
   </g>
   <g id="patch_18">
    <path d="M 299.52 295.2 
L 351.36 295.2 
L 351.36 324 
L 299.52 324 
z
" clip-path="url(#p4631579384)" style="fill: #fef4dc; stroke: #ec9a0e; stroke-width: 1.1; stroke-linejoin: miter"/>
   </g>
   <g id="patch_19">
    <path d="M 351.36 295.2 
L 403.2 295.2 
L 403.2 324 
L 351.36 324 
z
" clip-path="url(#p4631579384)" style="fill: #fef4dc; stroke: #ec9a0e; stroke-width: 1.1; stroke-linejoin: miter"/>
   </g>
   <g id="patch_20">
    <path d="M 403.2 295.2 
L 455.04 295.2 
L 455.04 324 
L 403.2 324 
z
" clip-path="url(#p4631579384)" style="fill: #fef4dc; stroke: #ec9a0e; stroke-width: 1.1; stroke-linejoin: miter"/>
   </g>
   <g id="patch_21">
    <path d="M 455.04 295.2 
L 506.88 295.2 
L 506.88 324 
L 455.04 324 
z
" clip-path="url(#p4631579384)" style="fill: #fef4dc; stroke: #ec9a0e; stroke-width: 1.1; stroke-linejoin: miter"/>
   </g>
   <g id="patch_22">
    <path d="M 177.84 347.04 
L 628.56 347.04 
Q 633.6 347.04 633.6 352.08 
L 633.6 421.2 
Q 633.6 426.24 628.56 426.24 
L 177.84 426.24 
Q 172.8 426.24 172.8 421.2 
L 172.8 352.08 
Q 172.8 347.04 177.84 347.04 
z
" clip-path="url(#p4631579384)" style="fill: #f6f8fb; stroke: #d4dce6; stroke-linejoin: miter"/>
   </g>
   <g id="patch_23">
    <path d="M 172.8 347.04 
L 176.4 347.04 
L 176.4 426.24 
L 172.8 426.24 
z
" clip-path="url(#p4631579384)" style="fill: #b7c0cc"/>
   </g>
   <g id="patch_24">
    <path d="M 69.84 452.16 
L 736.56 452.16 
Q 741.6 452.16 741.6 457.2 
L 741.6 474.48 
Q 741.6 479.52 736.56 479.52 
L 69.84 479.52 
Q 64.8 479.52 64.8 474.48 
L 64.8 457.2 
Q 64.8 452.16 69.84 452.16 
z
" clip-path="url(#p4631579384)" style="fill: #fff7f5; stroke-dasharray: 6,3.6; stroke-dashoffset: 0; stroke: #e8453a; stroke-width: 1.2; stroke-linejoin: miter"/>
   </g>
   <g id="patch_25">
    <path d="M 282.24 78.48 
Q 365.76 78.48 447.155735 78.48 
" clip-path="url(#p4631579384)" style="fill: none; stroke: #b7c0cc; stroke-width: 1.9; stroke-linecap: round"/>
    <path d="M 442.355735 76.08 
L 447.155735 78.48 
L 442.355735 80.88 
z
" clip-path="url(#p4631579384)" style="fill: #b7c0cc; stroke: #b7c0cc; stroke-width: 1.9; stroke-linecap: round"/>
   </g>
   <g id="patch_26">
    <path d="M 377.28 209.52 
Q 351.36 252 326.429985 292.857524 
" clip-path="url(#p4631579384)" style="fill: none; stroke: #ec9a0e; stroke-width: 1.7; stroke-linecap: round"/>
    <path d="M 330.599796 290.247413 
L 326.429985 292.857524 
L 326.843783 287.955609 
z
" clip-path="url(#p4631579384)" style="fill: #ec9a0e; stroke: #ec9a0e; stroke-width: 1.7; stroke-linecap: round"/>
   </g>
   <g id="patch_27">
    <path d="M 221.76 209.52 
Q 299.52 252 375.612012 293.568784 
" clip-path="url(#p4631579384)" style="fill: none; stroke: #ec9a0e; stroke-width: 1.7; stroke-linecap: round"/>
    <path d="M 372.805365 289.528643 
L 375.612012 293.568784 
L 370.695911 293.390017 
z
" clip-path="url(#p4631579384)" style="fill: #ec9a0e; stroke: #ec9a0e; stroke-width: 1.7; stroke-linecap: round"/>
   </g>
   <g id="patch_28">
    <path d="M 480.96 209.52 
Q 455.04 252 430.109985 292.857524 
" clip-path="url(#p4631579384)" style="fill: none; stroke: #ec9a0e; stroke-width: 1.7; stroke-linecap: round"/>
    <path d="M 434.279796 290.247413 
L 430.109985 292.857524 
L 430.523783 287.955609 
z
" clip-path="url(#p4631579384)" style="fill: #ec9a0e; stroke: #ec9a0e; stroke-width: 1.7; stroke-linecap: round"/>
   </g>
   <g id="patch_29">
    <path d="M 273.6 209.52 
Q 377.28 252 479.201241 293.759397 
" clip-path="url(#p4631579384)" style="fill: none; stroke: #ec9a0e; stroke-width: 1.7; stroke-linecap: round"/>
    <path d="M 475.963829 290.055459 
L 479.201241 293.759397 
L 474.295643 294.126964 
z
" clip-path="url(#p4631579384)" style="fill: #ec9a0e; stroke: #ec9a0e; stroke-width: 1.7; stroke-linecap: round"/>
   </g>
   <text x="120.7" y="26.5" font-family="Noto Sans CJK SC" font-size="16.0" fill="#1f2733">Gather：按索引取数——out[8k..8k+7] = dataAddr[ idx[k] ]</text>
   <g id="text_2">
    <!-- i0 -->
    <g style="fill: #1f2733" transform="translate(136.416 81.201) scale(0.096 -0.096)">
     <defs>
      <path id="NotoSansCJKsc-Regular-69" d="M 589 0 
L 1178 0 
L 1178 3475 
L 589 3475 
L 589 0 
z
M 883 4192 
C 1114 4192 1274 4346 1274 4582 
C 1274 4806 1114 4960 883 4960 
C 653 4960 499 4806 499 4582 
C 499 4346 653 4192 883 4192 
z
" transform="scale(0.015625)"/>
      <path id="NotoSansCJKsc-Regular-30" d="M 1779 -83 
C 2669 -83 3238 723 3238 2362 
C 3238 3987 2669 4774 1779 4774 
C 883 4774 320 3987 320 2362 
C 320 723 883 -83 1779 -83 
z
M 1779 390 
C 1248 390 883 986 883 2362 
C 883 3731 1248 4314 1779 4314 
C 2310 4314 2675 3731 2675 2362 
C 2675 986 2310 390 1779 390 
z
" transform="scale(0.015625)"/>
     </defs>
     <use xlink:href="#NotoSansCJKsc-Regular-69"/>
     <use xlink:href="#NotoSansCJKsc-Regular-30" transform="translate(27.499985 0)"/>
    </g>
   </g>
   <g id="text_3">
    <!-- i1 -->
    <g style="fill: #1f2733" transform="translate(175.296 81.201) scale(0.096 -0.096)">
     <defs>
      <path id="NotoSansCJKsc-Regular-31" d="M 563 0 
L 3136 0 
L 3136 486 
L 2195 486 
L 2195 4691 
L 1747 4691 
C 1491 4544 1190 4435 774 4358 
L 774 3987 
L 1613 3987 
L 1613 486 
L 563 486 
L 563 0 
z
" transform="scale(0.015625)"/>
     </defs>
     <use xlink:href="#NotoSansCJKsc-Regular-69"/>
     <use xlink:href="#NotoSansCJKsc-Regular-31" transform="translate(27.499985 0)"/>
    </g>
   </g>
   <g id="text_4">
    <!-- i2 -->
    <g style="fill: #1f2733" transform="translate(214.176 81.201) scale(0.096 -0.096)">
     <defs>
      <path id="NotoSansCJKsc-Regular-32" d="M 282 0 
L 3232 0 
L 3232 506 
L 1933 506 
C 1696 506 1408 480 1165 461 
C 2266 1504 3008 2458 3008 3398 
C 3008 4230 2477 4774 1638 4774 
C 1043 4774 634 4506 256 4090 
L 595 3757 
C 858 4070 1184 4301 1568 4301 
C 2150 4301 2432 3910 2432 3373 
C 2432 2566 1754 1632 282 346 
L 282 0 
z
" transform="scale(0.015625)"/>
     </defs>
     <use xlink:href="#NotoSansCJKsc-Regular-69"/>
     <use xlink:href="#NotoSansCJKsc-Regular-32" transform="translate(27.499985 0)"/>
    </g>
   </g>
   <g id="text_5">
    <!-- i3 -->
    <g style="fill: #1f2733" transform="translate(253.056 81.201) scale(0.096 -0.096)">
     <defs>
      <path id="NotoSansCJKsc-Regular-33" d="M 1683 -83 
C 2522 -83 3194 416 3194 1254 
C 3194 1901 2752 2310 2202 2445 
L 2202 2477 
C 2701 2650 3034 3034 3034 3603 
C 3034 4346 2458 4774 1664 4774 
C 1126 4774 710 4538 358 4218 
L 672 3846 
C 941 4115 1267 4301 1645 4301 
C 2138 4301 2438 4006 2438 3558 
C 2438 3053 2112 2662 1139 2662 
L 1139 2214 
C 2227 2214 2598 1843 2598 1274 
C 2598 736 2208 403 1645 403 
C 1114 403 762 659 486 941 
L 186 563 
C 493 224 954 -83 1683 -83 
z
" transform="scale(0.015625)"/>
     </defs>
     <use xlink:href="#NotoSansCJKsc-Regular-69"/>
     <use xlink:href="#NotoSansCJKsc-Regular-33" transform="translate(27.499985 0)"/>
    </g>
   </g>
   <g id="text_6">
    <text x="76.2" y="81.2" font-family="Noto Sans CJK SC" font-size="9.4" fill="#1956b3">紧排索引</text>
   </g>
   <g id="text_7">
    <!-- uint32_t 连续，4 个共 256B -->
    <g style="fill: #5a6573" transform="translate(147.616062 57.764187) scale(0.082 -0.082)">
     <defs>
      <path id="NotoSansCJKsc-Regular-75" d="M 1606 -83 
C 2080 -83 2426 166 2752 544 
L 2771 544 
L 2816 0 
L 3302 0 
L 3302 3475 
L 2720 3475 
L 2720 1011 
C 2387 602 2138 422 1779 422 
C 1318 422 1126 698 1126 1344 
L 1126 3475 
L 538 3475 
L 538 1274 
C 538 384 870 -83 1606 -83 
z
" transform="scale(0.015625)"/>
      <path id="NotoSansCJKsc-Regular-6e" d="M 589 0 
L 1178 0 
L 1178 2522 
C 1523 2874 1766 3053 2125 3053 
C 2586 3053 2784 2778 2784 2125 
L 2784 0 
L 3366 0 
L 3366 2202 
C 3366 3085 3034 3565 2304 3565 
C 1830 3565 1466 3302 1139 2970 
L 1126 2970 
L 1069 3475 
L 589 3475 
L 589 0 
z
" transform="scale(0.015625)"/>
      <path id="NotoSansCJKsc-Regular-74" d="M 1677 -83 
C 1894 -83 2125 -19 2323 45 
L 2208 486 
C 2093 435 1939 390 1811 390 
C 1408 390 1274 634 1274 1056 
L 1274 3002 
L 2221 3002 
L 2221 3475 
L 1274 3475 
L 1274 4454 
L 787 4454 
L 723 3475 
L 173 3443 
L 173 3002 
L 691 3002 
L 691 1075 
C 691 378 941 -83 1677 -83 
z
" transform="scale(0.015625)"/>
      <path id="NotoSansCJKsc-Regular-5f" d="M 83 -896 
L 3488 -896 
L 3488 -512 
L 83 -512 
L 83 -896 
z
" transform="scale(0.015625)"/>
      <path id="NotoSansCJKsc-Regular-20" transform="scale(0.015625)"/>
      <path id="NotoSansCJKsc-Regular-8fde" d="M 531 5069 
C 858 4704 1254 4211 1427 3898 
L 1824 4166 
C 1632 4474 1235 4960 902 5306 
L 531 5069 
z
M 1587 3206 
L 288 3206 
L 288 2758 
L 1126 2758 
L 1126 749 
C 851 634 525 333 192 -58 
L 550 -525 
C 845 -77 1133 333 1331 333 
C 1472 333 1690 102 1958 -77 
C 2419 -371 2963 -442 3795 -442 
C 4442 -442 5626 -403 6080 -371 
C 6093 -224 6170 32 6234 166 
C 5587 96 4608 38 3814 38 
C 3066 38 2502 83 2080 358 
C 1856 499 1709 627 1587 704 
L 1587 3206 
z
M 2406 2611 
C 2464 2669 2688 2707 2995 2707 
L 3981 2707 
L 3981 1830 
L 2022 1830 
L 2022 1382 
L 3981 1382 
L 3981 205 
L 4474 205 
L 4474 1382 
L 6022 1382 
L 6022 1830 
L 4474 1830 
L 4474 2707 
L 5715 2707 
L 5722 3155 
L 4474 3155 
L 4474 3942 
L 3981 3942 
L 3981 3155 
L 2931 3155 
C 3123 3488 3309 3878 3488 4288 
L 5907 4288 
L 5907 4710 
L 3654 4710 
L 3853 5242 
L 3354 5376 
C 3296 5152 3219 4928 3136 4710 
L 2074 4710 
L 2074 4288 
L 2970 4288 
C 2816 3917 2669 3616 2598 3494 
C 2470 3264 2362 3104 2253 3078 
C 2304 2950 2387 2714 2406 2611 
z
" transform="scale(0.015625)"/>
      <path id="NotoSansCJKsc-Regular-7eed" d="M 3034 2893 
C 3315 2726 3654 2483 3821 2298 
L 4051 2566 
C 3885 2746 3539 2982 3258 3130 
L 3034 2893 
z
M 2566 2310 
C 2867 2144 3219 1875 3386 1690 
L 3622 1965 
C 3443 2150 3091 2400 2797 2560 
L 2566 2310 
z
M 4410 672 
C 4915 326 5523 -186 5811 -525 
L 6125 -224 
C 5824 109 5203 602 4704 934 
L 4410 672 
z
M 275 371 
L 384 -77 
C 928 128 1638 403 2310 659 
L 2234 1056 
C 1504 794 768 525 275 371 
z
M 2566 3795 
L 2566 3379 
L 5446 3379 
C 5357 3104 5254 2822 5165 2624 
L 5549 2522 
C 5696 2829 5862 3309 5997 3738 
L 5690 3814 
L 5613 3795 
L 4435 3795 
L 4435 4371 
L 5664 4371 
L 5664 4781 
L 4435 4781 
L 4435 5376 
L 3962 5376 
L 3962 4781 
L 2803 4781 
L 2803 4371 
L 3962 4371 
L 3962 3795 
L 2566 3795 
z
M 4147 3130 
L 4147 2368 
C 4147 2131 4134 1869 4070 1606 
L 2432 1606 
L 2432 1184 
L 3923 1184 
C 3686 698 3226 218 2310 -166 
C 2400 -256 2534 -416 2592 -525 
C 3686 -51 4192 563 4416 1184 
L 6010 1184 
L 6010 1606 
L 4531 1606 
C 4582 1862 4595 2118 4595 2355 
L 4595 3130 
L 4147 3130 
z
M 390 2707 
C 480 2752 627 2790 1376 2886 
C 1107 2470 864 2138 755 2010 
C 563 1766 422 1600 294 1574 
C 339 1466 410 1254 435 1165 
C 557 1254 768 1325 2266 1734 
C 2253 1824 2240 2010 2240 2138 
L 1126 1862 
C 1574 2432 2016 3117 2381 3802 
L 2003 4019 
C 1894 3776 1760 3533 1626 3302 
L 864 3226 
C 1242 3782 1619 4486 1894 5171 
L 1478 5363 
C 1216 4589 755 3750 608 3533 
C 467 3315 358 3162 243 3136 
C 294 3014 365 2797 390 2707 
z
" transform="scale(0.015625)"/>
      <path id="NotoSansCJKsc-Regular-ff0c" d="M 1005 -685 
C 1677 -448 2112 77 2112 768 
C 2112 1216 1920 1504 1568 1504 
C 1306 1504 1082 1344 1082 1043 
C 1082 742 1299 589 1562 589 
L 1670 602 
C 1638 160 1357 -141 864 -346 
L 1005 -685 
z
" transform="scale(0.015625)"/>
      <path id="NotoSansCJKsc-Regular-34" d="M 2176 0 
L 2726 0 
L 2726 1293 
L 3354 1293 
L 3354 1760 
L 2726 1760 
L 2726 4691 
L 2080 4691 
L 128 1677 
L 128 1293 
L 2176 1293 
L 2176 0 
z
M 2176 1760 
L 736 1760 
L 1805 3360 
C 1939 3590 2067 3827 2182 4051 
L 2208 4051 
C 2195 3814 2176 3430 2176 3200 
L 2176 1760 
z
" transform="scale(0.015625)"/>
      <path id="NotoSansCJKsc-Regular-4e2a" d="M 2944 3494 
L 2944 -506 
L 3443 -506 
L 3443 3494 
L 2944 3494 
z
M 3238 5382 
C 2598 4314 1434 3379 224 2854 
C 358 2739 499 2554 582 2413 
C 1568 2893 2515 3635 3206 4518 
C 4058 3520 4902 2906 5850 2406 
C 5926 2560 6074 2739 6202 2842 
C 5216 3322 4307 3923 3488 4902 
L 3667 5184 
L 3238 5382 
z
" transform="scale(0.015625)"/>
      <path id="NotoSansCJKsc-Regular-5171" d="M 3757 960 
C 4365 512 5146 -128 5530 -512 
L 5984 -218 
C 5568 173 4768 781 4179 1210 
L 3757 960 
z
M 2106 1197 
C 1747 717 1024 160 397 -179 
C 506 -262 678 -416 774 -518 
C 1421 -147 2144 448 2605 1005 
L 2106 1197 
z
M 570 4019 
L 570 3558 
L 1792 3558 
L 1792 2035 
L 307 2035 
L 307 1568 
L 6118 1568 
L 6118 2035 
L 4608 2035 
L 4608 3558 
L 5888 3558 
L 5888 4019 
L 4608 4019 
L 4608 5318 
L 4115 5318 
L 4115 4019 
L 2285 4019 
L 2285 5318 
L 1792 5318 
L 1792 4019 
L 570 4019 
z
M 2285 2035 
L 2285 3558 
L 4115 3558 
L 4115 2035 
L 2285 2035 
z
" transform="scale(0.015625)"/>
      <path id="NotoSansCJKsc-Regular-35" d="M 1677 -83 
C 2464 -83 3213 499 3213 1523 
C 3213 2560 2573 3021 1798 3021 
C 1517 3021 1306 2950 1094 2835 
L 1216 4192 
L 2982 4192 
L 2982 4691 
L 704 4691 
L 550 2502 
L 864 2304 
C 1133 2483 1331 2579 1645 2579 
C 2234 2579 2618 2182 2618 1510 
C 2618 826 2176 403 1619 403 
C 1075 403 730 653 467 922 
L 173 538 
C 493 224 941 -83 1677 -83 
z
" transform="scale(0.015625)"/>
      <path id="NotoSansCJKsc-Regular-36" d="M 1926 -83 
C 2656 -83 3277 531 3277 1440 
C 3277 2426 2765 2912 1971 2912 
C 1606 2912 1197 2701 909 2349 
C 934 3802 1466 4294 2118 4294 
C 2400 4294 2682 4154 2861 3936 
L 3194 4294 
C 2931 4576 2579 4774 2093 4774 
C 1184 4774 358 4077 358 2240 
C 358 691 1030 -83 1926 -83 
z
M 922 1882 
C 1229 2317 1587 2477 1875 2477 
C 2445 2477 2720 2074 2720 1440 
C 2720 800 2374 378 1926 378 
C 1338 378 986 909 922 1882 
z
" transform="scale(0.015625)"/>
      <path id="NotoSansCJKsc-Regular-42" d="M 646 0 
L 2138 0 
C 3187 0 3917 454 3917 1376 
C 3917 2016 3520 2387 2963 2496 
L 2963 2528 
C 3405 2669 3648 3078 3648 3546 
C 3648 4371 2982 4691 2035 4691 
L 646 4691 
L 646 0 
z
M 1235 2701 
L 1235 4224 
L 1958 4224 
C 2694 4224 3066 4019 3066 3469 
C 3066 2989 2739 2701 1933 2701 
L 1235 2701 
z
M 1235 474 
L 1235 2240 
L 2054 2240 
C 2880 2240 3334 1978 3334 1395 
C 3334 762 2861 474 2054 474 
L 1235 474 
z
" transform="scale(0.015625)"/>
     </defs>
     <use xlink:href="#NotoSansCJKsc-Regular-75"/>
     <use xlink:href="#NotoSansCJKsc-Regular-69" transform="translate(60.699997 0)"/>
     <use xlink:href="#NotoSansCJKsc-Regular-6e" transform="translate(88.199982 0)"/>
     <use xlink:href="#NotoSansCJKsc-Regular-74" transform="translate(149.199966 0)"/>
     <use xlink:href="#NotoSansCJKsc-Regular-33" transform="translate(186.899963 0)"/>
     <use xlink:href="#NotoSansCJKsc-Regular-32" transform="translate(242.399948 0)"/>
     <use xlink:href="#NotoSansCJKsc-Regular-5f" transform="translate(297.899933 0)"/>
     <use xlink:href="#NotoSansCJKsc-Regular-74" transform="translate(353.799927 0)"/>
     <use xlink:href="#NotoSansCJKsc-Regular-20" transform="translate(391.499924 0)"/>
     <use xlink:href="#NotoSansCJKsc-Regular-8fde" transform="translate(413.899918 0)"/>
     <use xlink:href="#NotoSansCJKsc-Regular-7eed" transform="translate(513.899902 0)"/>
     <use xlink:href="#NotoSansCJKsc-Regular-ff0c" transform="translate(613.899887 0)"/>
     <use xlink:href="#NotoSansCJKsc-Regular-34" transform="translate(713.899872 0)"/>
     <use xlink:href="#NotoSansCJKsc-Regular-20" transform="translate(769.399857 0)"/>
     <use xlink:href="#NotoSansCJKsc-Regular-4e2a" transform="translate(791.79985 0)"/>
     <use xlink:href="#NotoSansCJKsc-Regular-5171" transform="translate(891.799835 0)"/>
     <use xlink:href="#NotoSansCJKsc-Regular-20" transform="translate(991.79982 0)"/>
     <use xlink:href="#NotoSansCJKsc-Regular-32" transform="translate(1014.199814 0)"/>
     <use xlink:href="#NotoSansCJKsc-Regular-35" transform="translate(1069.699799 0)"/>
     <use xlink:href="#NotoSansCJKsc-Regular-36" transform="translate(1125.199783 0)"/>
     <use xlink:href="#NotoSansCJKsc-Regular-42" transform="translate(1180.699768 0)"/>
    </g>
   </g>
   <g id="text_8">
    <!-- ① DIST_E2B_B32 扩块 -->
    <g style="fill: #1f2733" transform="translate(320.394625 62.25425) scale(0.088 -0.088)">
     <defs>
      <path id="NotoSansCJKsc-Regular-2460" d="M 3200 -550 
C 4832 -550 6182 774 6182 2432 
C 6182 4077 4845 5414 3200 5414 
C 1555 5414 218 4077 218 2432 
C 218 787 1555 -550 3200 -550 
z
M 3200 -346 
C 1664 -346 422 896 422 2432 
C 422 3955 1651 5210 3200 5210 
C 4736 5210 5978 3968 5978 2432 
C 5978 896 4736 -346 3200 -346 
z
M 3072 813 
L 3597 813 
L 3597 4128 
L 3194 4128 
C 2976 4013 2733 3923 2394 3866 
L 2394 3526 
L 3072 3526 
L 3072 813 
z
" transform="scale(0.015625)"/>
      <path id="NotoSansCJKsc-Regular-44" d="M 646 0 
L 1843 0 
C 3258 0 4026 877 4026 2362 
C 4026 3859 3258 4691 1818 4691 
L 646 4691 
L 646 0 
z
M 1235 486 
L 1235 4211 
L 1766 4211 
C 2874 4211 3418 3552 3418 2362 
C 3418 1178 2874 486 1766 486 
L 1235 486 
z
" transform="scale(0.015625)"/>
      <path id="NotoSansCJKsc-Regular-49" d="M 646 0 
L 1235 0 
L 1235 4691 
L 646 4691 
L 646 0 
z
" transform="scale(0.015625)"/>
      <path id="NotoSansCJKsc-Regular-53" d="M 1946 -83 
C 2925 -83 3539 506 3539 1248 
C 3539 1946 3117 2266 2573 2502 
L 1907 2790 
C 1542 2944 1126 3117 1126 3578 
C 1126 3994 1472 4256 2003 4256 
C 2438 4256 2784 4090 3072 3821 
L 3379 4198 
C 3053 4538 2560 4774 2003 4774 
C 1152 4774 525 4256 525 3533 
C 525 2848 1043 2515 1478 2330 
L 2150 2035 
C 2598 1837 2938 1683 2938 1197 
C 2938 742 2573 435 1952 435 
C 1466 435 992 666 659 1018 
L 307 608 
C 710 186 1280 -83 1946 -83 
z
" transform="scale(0.015625)"/>
      <path id="NotoSansCJKsc-Regular-54" d="M 1619 0 
L 2214 0 
L 2214 4192 
L 3635 4192 
L 3635 4691 
L 198 4691 
L 198 4192 
L 1619 4192 
L 1619 0 
z
" transform="scale(0.015625)"/>
      <path id="NotoSansCJKsc-Regular-45" d="M 646 0 
L 3418 0 
L 3418 506 
L 1235 506 
L 1235 2214 
L 3014 2214 
L 3014 2720 
L 1235 2720 
L 1235 4192 
L 3347 4192 
L 3347 4691 
L 646 4691 
L 646 0 
z
" transform="scale(0.015625)"/>
      <path id="NotoSansCJKsc-Regular-6269" d="M 1114 5370 
L 1114 4083 
L 352 4083 
L 352 3629 
L 1114 3629 
L 1114 2221 
C 787 2125 493 2042 256 1978 
L 384 1491 
L 1114 1728 
L 1114 90 
C 1114 0 1082 -26 1005 -26 
C 928 -32 678 -32 403 -26 
C 467 -160 531 -365 544 -486 
C 947 -493 1203 -474 1357 -390 
C 1523 -314 1581 -179 1581 90 
L 1581 1882 
L 2298 2112 
L 2234 2566 
L 1581 2362 
L 1581 3629 
L 2278 3629 
L 2278 4083 
L 1581 4083 
L 1581 5370 
L 1114 5370 
z
M 3910 5197 
C 4045 4954 4205 4640 4294 4403 
L 2701 4403 
L 2701 2803 
C 2701 1875 2630 621 1920 -269 
C 2035 -320 2234 -454 2317 -544 
C 3066 397 3181 1805 3181 2797 
L 3181 3942 
L 6099 3942 
L 6099 4403 
L 4576 4403 
L 4774 4480 
C 4685 4710 4499 5069 4333 5338 
L 3910 5197 
z
" transform="scale(0.015625)"/>
      <path id="NotoSansCJKsc-Regular-5757" d="M 5178 2426 
L 4173 2426 
C 4192 2656 4198 2893 4198 3123 
L 4198 3840 
L 5178 3840 
L 5178 2426 
z
M 3731 5306 
L 3731 4294 
L 2573 4294 
L 2573 3840 
L 3731 3840 
L 3731 3130 
C 3731 2893 3725 2656 3699 2426 
L 2381 2426 
L 2381 1971 
L 3635 1971 
C 3462 1158 3008 403 1850 -160 
C 1958 -243 2112 -416 2176 -525 
C 3386 77 3878 890 4077 1773 
C 4410 704 4979 -102 5862 -525 
C 5933 -390 6086 -198 6195 -102 
C 5331 256 4762 1005 4461 1971 
L 6080 1971 
L 6080 2426 
L 5632 2426 
L 5632 4294 
L 4198 4294 
L 4198 5306 
L 3731 5306 
z
M 230 1043 
L 422 563 
C 979 806 1696 1133 2374 1446 
L 2266 1875 
L 1562 1574 
L 1562 3379 
L 2266 3379 
L 2266 3834 
L 1562 3834 
L 1562 5299 
L 1107 5299 
L 1107 3834 
L 333 3834 
L 333 3379 
L 1107 3379 
L 1107 1389 
C 774 1254 474 1133 230 1043 
z
" transform="scale(0.015625)"/>
     </defs>
     <use xlink:href="#NotoSansCJKsc-Regular-2460"/>
     <use xlink:href="#NotoSansCJKsc-Regular-20" transform="translate(99.999985 0)"/>
     <use xlink:href="#NotoSansCJKsc-Regular-44" transform="translate(122.399979 0)"/>
     <use xlink:href="#NotoSansCJKsc-Regular-49" transform="translate(191.199966 0)"/>
     <use xlink:href="#NotoSansCJKsc-Regular-53" transform="translate(220.499954 0)"/>
     <use xlink:href="#NotoSansCJKsc-Regular-54" transform="translate(280.099945 0)"/>
     <use xlink:href="#NotoSansCJKsc-Regular-5f" transform="translate(339.999939 0)"/>
     <use xlink:href="#NotoSansCJKsc-Regular-45" transform="translate(395.899933 0)"/>
     <use xlink:href="#NotoSansCJKsc-Regular-32" transform="translate(454.799927 0)"/>
     <use xlink:href="#NotoSansCJKsc-Regular-42" transform="translate(510.299911 0)"/>
     <use xlink:href="#NotoSansCJKsc-Regular-5f" transform="translate(575.999908 0)"/>
     <use xlink:href="#NotoSansCJKsc-Regular-42" transform="translate(631.899902 0)"/>
     <use xlink:href="#NotoSansCJKsc-Regular-33" transform="translate(697.599899 0)"/>
     <use xlink:href="#NotoSansCJKsc-Regular-32" transform="translate(753.099884 0)"/>
     <use xlink:href="#NotoSansCJKsc-Regular-20" transform="translate(808.599869 0)"/>
     <use xlink:href="#NotoSansCJKsc-Regular-6269" transform="translate(830.999863 0)"/>
     <use xlink:href="#NotoSansCJKsc-Regular-5757" transform="translate(930.999847 0)"/>
    </g>
   </g>
   <text x="316.1" y="100.9" font-family="Noto Sans CJK SC" font-size="8.0" fill="#c42b22">8 索引 → 2048B（块内复制）</text>
   <text x="479.8" y="81.2" font-family="Noto Sans CJK SC" font-size="9.6" fill="#1f2733">i0 │ i0…</text>
   <text x="563.4" y="81.2" font-family="Noto Sans CJK SC" font-size="9.6" fill="#1f2733">i1 │ i1…</text>
   <text x="646.9" y="81.2" font-family="Noto Sans CJK SC" font-size="9.6" fill="#1f2733">i2 │ i2…</text>
   <text x="730.4" y="81.2" font-family="Noto Sans CJK SC" font-size="9.6" fill="#1f2733">i3 │ i3…</text>
   <text x="533.3" y="57.8" font-family="Noto Sans CJK SC" font-size="8.2" fill="#9a6300">每个索引独占 1 个 32B 块（块内 8 lane 重复同一索引值）</text>
   <text x="266.0" y="123.5" font-family="Noto Sans CJK SC" font-size="9.0" fill="#5a6573">② 取数前给每个索引加行基址：实际读地址 = base + idx × elemSize</text>
   <g id="text_16">
    <!-- d0 -->
    <g style="fill: #1f2733" transform="translate(216.12 197.121) scale(0.096 -0.096)">
     <use xlink:href="#NotoSansCJKsc-Regular-64"/>
     <use xlink:href="#NotoSansCJKsc-Regular-30" transform="translate(61.999985 0)"/>
    </g>
   </g>
   <g id="text_17">
    <!-- d1 -->
    <g style="fill: #1f2733" transform="translate(267.96 197.121) scale(0.096 -0.096)">
     <use xlink:href="#NotoSansCJKsc-Regular-64"/>
     <use xlink:href="#NotoSansCJKsc-Regular-31" transform="translate(61.999985 0)"/>
    </g>
   </g>
   <g id="text_18">
    <!-- d2 -->
    <g style="fill: #1f2733" transform="translate(319.8 197.121) scale(0.096 -0.096)">
     <use xlink:href="#NotoSansCJKsc-Regular-64"/>
     <use xlink:href="#NotoSansCJKsc-Regular-32" transform="translate(61.999985 0)"/>
    </g>
   </g>
   <g id="text_19">
    <!-- d3 -->
    <g style="fill: #1f2733" transform="translate(371.64 197.121) scale(0.096 -0.096)">
     <use xlink:href="#NotoSansCJKsc-Regular-64"/>
     <use xlink:href="#NotoSansCJKsc-Regular-33" transform="translate(61.999985 0)"/>
    </g>
   </g>
   <g id="text_20">
    <!-- d4 -->
    <g style="fill: #1f2733" transform="translate(423.48 197.121) scale(0.096 -0.096)">
     <use xlink:href="#NotoSansCJKsc-Regular-64"/>
     <use xlink:href="#NotoSansCJKsc-Regular-34" transform="translate(61.999985 0)"/>
    </g>
   </g>
   <g id="text_21">
    <!-- d5 -->
    <g style="fill: #1f2733" transform="translate(475.32 197.121) scale(0.096 -0.096)">
     <use xlink:href="#NotoSansCJKsc-Regular-64"/>
     <use xlink:href="#NotoSansCJKsc-Regular-35" transform="translate(61.999985 0)"/>
    </g>
   </g>
   <g id="text_22">
    <!-- d6 -->
    <g style="fill: #1f2733" transform="translate(527.16 197.121) scale(0.096 -0.096)">
     <use xlink:href="#NotoSansCJKsc-Regular-64"/>
     <use xlink:href="#NotoSansCJKsc-Regular-36" transform="translate(61.999985 0)"/>
    </g>
   </g>
   <g id="text_23">
    <!-- d7 -->
    <g style="fill: #1f2733" transform="translate(579 197.121) scale(0.096 -0.096)">
     <defs>
      <path id="NotoSansCJKsc-Regular-37" d="M 1267 0 
L 1875 0 
C 1952 1837 2150 2931 3251 4339 
L 3251 4691 
L 314 4691 
L 314 4192 
L 2592 4192 
C 1670 2912 1350 1779 1267 0 
z
" transform="scale(0.015625)"/>
     </defs>
     <use xlink:href="#NotoSansCJKsc-Regular-64"/>
     <use xlink:href="#NotoSansCJKsc-Regular-37" transform="translate(61.999985 0)"/>
    </g>
   </g>
   <g id="text_24">
    <text x="107.8" y="197.2" font-family="Noto Sans CJK SC" font-size="9.4" fill="#1956b3">源数据 dataAddr[]</text>
   </g>
   <g id="text_25">
    <!-- [0] -->
    <g style="fill: #5a6573" transform="translate(216.959344 172.850812) scale(0.078 -0.078)">
     <defs>
      <path id="NotoSansCJKsc-Regular-5b" d="M 678 -1088 
L 1946 -1088 
L 1946 -755 
L 1114 -755 
L 1114 4730 
L 1946 4730 
L 1946 5069 
L 678 5069 
L 678 -1088 
z
" transform="scale(0.015625)"/>
      <path id="NotoSansCJKsc-Regular-5d" d="M 218 -1088 
L 1491 -1088 
L 1491 5069 
L 218 5069 
L 218 4730 
L 1050 4730 
L 1050 -755 
L 218 -755 
L 218 -1088 
z
" transform="scale(0.015625)"/>
     </defs>
     <use xlink:href="#NotoSansCJKsc-Regular-5b"/>
     <use xlink:href="#NotoSansCJKsc-Regular-30" transform="translate(33.799988 0)"/>
     <use xlink:href="#NotoSansCJKsc-Regular-5d" transform="translate(89.299973 0)"/>
    </g>
   </g>
   <g id="text_26">
    <!-- [1] -->
    <g style="fill: #5a6573" transform="translate(268.799344 172.850812) scale(0.078 -0.078)">
     <use xlink:href="#NotoSansCJKsc-Regular-5b"/>
     <use xlink:href="#NotoSansCJKsc-Regular-31" transform="translate(33.799988 0)"/>
     <use xlink:href="#NotoSansCJKsc-Regular-5d" transform="translate(89.299973 0)"/>
    </g>
   </g>
   <g id="text_27">
    <!-- [2] -->
    <g style="fill: #5a6573" transform="translate(320.639344 172.850812) scale(0.078 -0.078)">
     <use xlink:href="#NotoSansCJKsc-Regular-5b"/>
     <use xlink:href="#NotoSansCJKsc-Regular-32" transform="translate(33.799988 0)"/>
     <use xlink:href="#NotoSansCJKsc-Regular-5d" transform="translate(89.299973 0)"/>
    </g>
   </g>
   <g id="text_28">
    <!-- [3] -->
    <g style="fill: #5a6573" transform="translate(372.479344 172.850812) scale(0.078 -0.078)">
     <use xlink:href="#NotoSansCJKsc-Regular-5b"/>
     <use xlink:href="#NotoSansCJKsc-Regular-33" transform="translate(33.799988 0)"/>
     <use xlink:href="#NotoSansCJKsc-Regular-5d" transform="translate(89.299973 0)"/>
    </g>
   </g>
   <g id="text_29">
    <!-- [4] -->
    <g style="fill: #5a6573" transform="translate(424.319344 172.850812) scale(0.078 -0.078)">
     <use xlink:href="#NotoSansCJKsc-Regular-5b"/>
     <use xlink:href="#NotoSansCJKsc-Regular-34" transform="translate(33.799988 0)"/>
     <use xlink:href="#NotoSansCJKsc-Regular-5d" transform="translate(89.299973 0)"/>
    </g>
   </g>
   <g id="text_30">
    <!-- [5] -->
    <g style="fill: #5a6573" transform="translate(476.159344 172.850812) scale(0.078 -0.078)">
     <use xlink:href="#NotoSansCJKsc-Regular-5b"/>
     <use xlink:href="#NotoSansCJKsc-Regular-35" transform="translate(33.799988 0)"/>
     <use xlink:href="#NotoSansCJKsc-Regular-5d" transform="translate(89.299973 0)"/>
    </g>
   </g>
   <g id="text_31">
    <!-- [6] -->
    <g style="fill: #5a6573" transform="translate(527.999344 172.850812) scale(0.078 -0.078)">
     <use xlink:href="#NotoSansCJKsc-Regular-5b"/>
     <use xlink:href="#NotoSansCJKsc-Regular-36" transform="translate(33.799988 0)"/>
     <use xlink:href="#NotoSansCJKsc-Regular-5d" transform="translate(89.299973 0)"/>
    </g>
   </g>
   <g id="text_32">
    <!-- [7] -->
    <g style="fill: #5a6573" transform="translate(579.839344 172.850812) scale(0.078 -0.078)">
     <use xlink:href="#NotoSansCJKsc-Regular-5b"/>
     <use xlink:href="#NotoSansCJKsc-Regular-37" transform="translate(33.799988 0)"/>
     <use xlink:href="#NotoSansCJKsc-Regular-5d" transform="translate(89.299973 0)"/>
    </g>
   </g>
   <g id="text_33">
    <!-- d3 -->
    <g style="fill: #1f2733" transform="translate(319.8 312.321) scale(0.096 -0.096)">
     <use xlink:href="#NotoSansCJKsc-Regular-64"/>
     <use xlink:href="#NotoSansCJKsc-Regular-33" transform="translate(61.999985 0)"/>
    </g>
   </g>
   <g id="text_34">
    <!-- d0 -->
    <g style="fill: #1f2733" transform="translate(371.64 312.321) scale(0.096 -0.096)">
     <use xlink:href="#NotoSansCJKsc-Regular-64"/>
     <use xlink:href="#NotoSansCJKsc-Regular-30" transform="translate(61.999985 0)"/>
    </g>
   </g>
   <g id="text_35">
    <!-- d5 -->
    <g style="fill: #1f2733" transform="translate(423.48 312.321) scale(0.096 -0.096)">
     <use xlink:href="#NotoSansCJKsc-Regular-64"/>
     <use xlink:href="#NotoSansCJKsc-Regular-35" transform="translate(61.999985 0)"/>
    </g>
   </g>
   <g id="text_36">
    <!-- d1 -->
    <g style="fill: #1f2733" transform="translate(475.32 312.321) scale(0.096 -0.096)">
     <use xlink:href="#NotoSansCJKsc-Regular-64"/>
     <use xlink:href="#NotoSansCJKsc-Regular-31" transform="translate(61.999985 0)"/>
    </g>
   </g>
   <text x="275.0" y="312.5" font-family="Noto Sans CJK SC" font-size="9.4" fill="#9a6300" text-anchor="end">vregOut（结果）</text>
   <g id="text_38">
    <!-- idx[0]=3 -->
    <g style="fill: #9a6300" transform="translate(310.504375 335.6275) scale(0.08 -0.08)">
     <use xlink:href="#NotoSansCJKsc-Regular-69"/>
     <use xlink:href="#NotoSansCJKsc-Regular-64" transform="translate(27.499985 0)"/>
     <use xlink:href="#NotoSansCJKsc-Regular-78" transform="translate(89.499969 0)"/>
     <use xlink:href="#NotoSansCJKsc-Regular-5b" transform="translate(139.299957 0)"/>
     <use xlink:href="#NotoSansCJKsc-Regular-30" transform="translate(173.099945 0)"/>
     <use xlink:href="#NotoSansCJKsc-Regular-5d" transform="translate(228.59993 0)"/>
     <use xlink:href="#NotoSansCJKsc-Regular-3d" transform="translate(262.399918 0)"/>
     <use xlink:href="#NotoSansCJKsc-Regular-33" transform="translate(317.899902 0)"/>
    </g>
   </g>
   <g id="text_39">
    <!-- idx[1]=0 -->
    <g style="fill: #9a6300" transform="translate(362.344375 335.6275) scale(0.08 -0.08)">
     <use xlink:href="#NotoSansCJKsc-Regular-69"/>
     <use xlink:href="#NotoSansCJKsc-Regular-64" transform="translate(27.499985 0)"/>
     <use xlink:href="#NotoSansCJKsc-Regular-78" transform="translate(89.499969 0)"/>
     <use xlink:href="#NotoSansCJKsc-Regular-5b" transform="translate(139.299957 0)"/>
     <use xlink:href="#NotoSansCJKsc-Regular-31" transform="translate(173.099945 0)"/>
     <use xlink:href="#NotoSansCJKsc-Regular-5d" transform="translate(228.59993 0)"/>
     <use xlink:href="#NotoSansCJKsc-Regular-3d" transform="translate(262.399918 0)"/>
     <use xlink:href="#NotoSansCJKsc-Regular-30" transform="translate(317.899902 0)"/>
    </g>
   </g>
   <g id="text_40">
    <!-- idx[2]=5 -->
    <g style="fill: #9a6300" transform="translate(414.184375 335.6275) scale(0.08 -0.08)">
     <use xlink:href="#NotoSansCJKsc-Regular-69"/>
     <use xlink:href="#NotoSansCJKsc-Regular-64" transform="translate(27.499985 0)"/>
     <use xlink:href="#NotoSansCJKsc-Regular-78" transform="translate(89.499969 0)"/>
     <use xlink:href="#NotoSansCJKsc-Regular-5b" transform="translate(139.299957 0)"/>
     <use xlink:href="#NotoSansCJKsc-Regular-32" transform="translate(173.099945 0)"/>
     <use xlink:href="#NotoSansCJKsc-Regular-5d" transform="translate(228.59993 0)"/>
     <use xlink:href="#NotoSansCJKsc-Regular-3d" transform="translate(262.399918 0)"/>
     <use xlink:href="#NotoSansCJKsc-Regular-35" transform="translate(317.899902 0)"/>
    </g>
   </g>
   <g id="text_41">
    <!-- idx[3]=1 -->
    <g style="fill: #9a6300" transform="translate(466.024375 335.6275) scale(0.08 -0.08)">
     <use xlink:href="#NotoSansCJKsc-Regular-69"/>
     <use xlink:href="#NotoSansCJKsc-Regular-64" transform="translate(27.499985 0)"/>
     <use xlink:href="#NotoSansCJKsc-Regular-78" transform="translate(89.499969 0)"/>
     <use xlink:href="#NotoSansCJKsc-Regular-5b" transform="translate(139.299957 0)"/>
     <use xlink:href="#NotoSansCJKsc-Regular-33" transform="translate(173.099945 0)"/>
     <use xlink:href="#NotoSansCJKsc-Regular-5d" transform="translate(228.59993 0)"/>
     <use xlink:href="#NotoSansCJKsc-Regular-3d" transform="translate(262.399918 0)"/>
     <use xlink:href="#NotoSansCJKsc-Regular-31" transform="translate(317.899902 0)"/>
    </g>
   </g>
   <g id="text_42">
    <!-- 对应代码（VF 循环体） -->
    <g style="fill: #5a6573" transform="translate(182.88 359.330812) scale(0.078 -0.078)">
     <defs>
      <path id="NotoSansCJKsc-Regular-5bf9" d="M 3213 2522 
C 3514 2067 3802 1459 3904 1075 
L 4326 1286 
C 4224 1670 3917 2259 3603 2701 
L 3213 2522 
z
M 582 2899 
C 973 2547 1389 2131 1760 1709 
C 1376 890 870 269 288 -109 
C 403 -205 550 -384 627 -499 
C 1216 -77 1715 512 2106 1299 
C 2394 941 2630 602 2784 314 
L 3168 666 
C 2982 998 2682 1395 2330 1798 
C 2624 2534 2835 3411 2944 4448 
L 2630 4538 
L 2547 4518 
L 448 4518 
L 448 4064 
L 2419 4064 
C 2323 3373 2170 2752 1965 2202 
C 1626 2554 1267 2899 922 3200 
L 582 2899 
z
M 4896 5376 
L 4896 3834 
L 3085 3834 
L 3085 3373 
L 4896 3373 
L 4896 141 
C 4896 26 4851 -6 4742 -13 
C 4634 -13 4275 -19 3872 0 
C 3936 -147 4006 -371 4032 -506 
C 4576 -506 4902 -493 5094 -410 
C 5293 -326 5370 -179 5370 141 
L 5370 3373 
L 6138 3373 
L 6138 3834 
L 5370 3834 
L 5370 5376 
L 4896 5376 
z
" transform="scale(0.015625)"/>
      <path id="NotoSansCJKsc-Regular-5e94" d="M 1690 3136 
C 1952 2445 2259 1530 2381 934 
L 2835 1120 
C 2694 1715 2387 2605 2106 3309 
L 1690 3136 
z
M 3078 3494 
C 3283 2797 3520 1888 3610 1293 
L 4070 1434 
C 3974 2029 3738 2918 3514 3616 
L 3078 3494 
z
M 2995 5299 
C 3117 5075 3245 4781 3334 4550 
L 774 4550 
L 774 2803 
C 774 1894 730 621 230 -288 
C 346 -333 563 -474 653 -557 
C 1178 397 1261 1830 1261 2803 
L 1261 4096 
L 6029 4096 
L 6029 4550 
L 3878 4550 
C 3795 4781 3616 5146 3462 5427 
L 2995 5299 
z
M 1338 250 
L 1338 -211 
L 6112 -211 
L 6112 250 
L 4378 250 
C 4966 1242 5440 2406 5747 3469 
L 5242 3654 
C 4998 2547 4506 1242 3885 250 
L 1338 250 
z
" transform="scale(0.015625)"/>
      <path id="NotoSansCJKsc-Regular-4ee3" d="M 4576 5011 
C 4954 4691 5402 4243 5613 3955 
L 5984 4211 
C 5766 4499 5306 4934 4922 5242 
L 4576 5011 
z
M 3507 5286 
C 3533 4608 3578 3968 3635 3379 
L 2074 3181 
L 2144 2726 
L 3686 2918 
C 3930 909 4442 -429 5504 -506 
C 5843 -525 6099 -192 6240 915 
C 6144 960 5933 1075 5837 1171 
C 5773 429 5670 51 5485 58 
C 4800 128 4378 1280 4160 2982 
L 6112 3226 
L 6042 3680 
L 4109 3437 
C 4045 4006 4006 4634 3987 5286 
L 3507 5286 
z
M 2003 5312 
C 1581 4294 870 3315 134 2688 
C 218 2579 365 2336 416 2227 
C 710 2490 998 2810 1274 3162 
L 1274 -499 
L 1766 -499 
L 1766 3866 
C 2029 4275 2266 4717 2458 5165 
L 2003 5312 
z
" transform="scale(0.015625)"/>
      <path id="NotoSansCJKsc-Regular-7801" d="M 2624 1312 
L 2624 877 
L 5069 877 
L 5069 1312 
L 2624 1312 
z
M 3142 4160 
C 3098 3526 3014 2669 2931 2157 
L 3059 2157 
L 5523 2150 
C 5402 749 5261 179 5094 13 
C 5030 -51 4966 -64 4851 -58 
C 4736 -58 4448 -58 4141 -26 
C 4218 -147 4262 -333 4275 -467 
C 4582 -486 4877 -486 5043 -474 
C 5235 -461 5357 -416 5478 -275 
C 5709 -45 5856 627 6003 2355 
C 6010 2426 6016 2566 6016 2566 
L 5222 2566 
C 5325 3360 5427 4320 5478 4986 
L 5139 5024 
L 5062 4998 
L 2835 4998 
L 2835 4557 
L 4979 4557 
C 4928 3994 4845 3213 4768 2566 
L 3437 2566 
C 3494 3040 3558 3642 3590 4128 
L 3142 4160 
z
M 326 5037 
L 326 4595 
L 1107 4595 
C 928 3616 640 2707 186 2099 
C 262 1971 371 1702 403 1581 
C 525 1741 640 1914 742 2106 
L 742 -218 
L 1158 -218 
L 1158 294 
L 2336 294 
L 2336 3066 
L 1165 3066 
C 1331 3546 1466 4064 1568 4595 
L 2522 4595 
L 2522 5037 
L 326 5037 
z
M 1158 2630 
L 1914 2630 
L 1914 723 
L 1158 723 
L 1158 2630 
z
" transform="scale(0.015625)"/>
      <path id="NotoSansCJKsc-Regular-56" d="M 1504 0 
L 2189 0 
L 3680 4691 
L 3078 4691 
L 2323 2150 
C 2163 1600 2048 1152 1869 602 
L 1843 602 
C 1670 1152 1549 1600 1389 2150 
L 627 4691 
L 6 4691 
L 1504 0 
z
" transform="scale(0.015625)"/>
      <path id="NotoSansCJKsc-Regular-46" d="M 646 0 
L 1235 0 
L 1235 2106 
L 3027 2106 
L 3027 2605 
L 1235 2605 
L 1235 4192 
L 3347 4192 
L 3347 4691 
L 646 4691 
L 646 0 
z
" transform="scale(0.015625)"/>
      <path id="NotoSansCJKsc-Regular-5faa" d="M 1382 5376 
C 1152 4941 691 4397 282 4051 
C 358 3968 486 3789 538 3686 
C 1005 4083 1504 4685 1824 5216 
L 1382 5376 
z
M 3034 2803 
L 3034 -512 
L 3475 -512 
L 3475 -205 
L 5293 -205 
L 5293 -493 
L 5747 -493 
L 5747 2803 
L 4480 2803 
L 4544 3494 
L 6080 3494 
L 6080 3910 
L 4576 3910 
L 4621 4717 
C 5030 4781 5408 4858 5728 4934 
L 5363 5293 
C 4634 5094 3315 4934 2208 4851 
L 2208 2746 
C 2208 1805 2170 570 1850 -326 
C 1965 -378 2138 -493 2227 -563 
C 2605 397 2650 1696 2650 2746 
L 2650 3494 
L 4090 3494 
L 4038 2803 
L 3034 2803 
z
M 2650 4493 
C 3136 4531 3648 4582 4141 4646 
L 4109 3910 
L 2650 3910 
L 2650 4493 
z
M 1536 4032 
C 1210 3405 691 2765 198 2342 
C 282 2227 416 1990 461 1894 
C 646 2067 838 2272 1030 2502 
L 1030 -512 
L 1478 -512 
L 1478 3091 
C 1658 3347 1818 3610 1952 3872 
L 1536 4032 
z
M 3475 1555 
L 5293 1555 
L 5293 1056 
L 3475 1056 
L 3475 1555 
z
M 3475 1894 
L 3475 2400 
L 5293 2400 
L 5293 1894 
L 3475 1894 
z
M 3475 179 
L 3475 717 
L 5293 717 
L 5293 179 
L 3475 179 
z
" transform="scale(0.015625)"/>
      <path id="NotoSansCJKsc-Regular-73af" d="M 4333 3162 
C 4813 2624 5382 1888 5638 1434 
L 6029 1734 
C 5760 2176 5171 2893 4698 3418 
L 4333 3162 
z
M 230 653 
L 352 198 
C 877 390 1555 627 2195 864 
L 2118 1299 
L 1472 1069 
L 1472 2643 
L 2042 2643 
L 2042 3091 
L 1472 3091 
L 1472 4493 
L 2176 4493 
L 2176 4941 
L 262 4941 
L 262 4493 
L 1024 4493 
L 1024 3091 
L 358 3091 
L 358 2643 
L 1024 2643 
L 1024 915 
L 230 653 
z
M 2502 4966 
L 2502 4499 
L 4134 4499 
C 3731 3373 3066 2374 2266 1734 
C 2381 1645 2566 1453 2643 1357 
C 3085 1747 3494 2246 3853 2816 
L 3853 -493 
L 4326 -493 
L 4326 3693 
C 4448 3955 4563 4224 4659 4499 
L 6042 4499 
L 6042 4966 
L 2502 4966 
z
" transform="scale(0.015625)"/>
      <path id="NotoSansCJKsc-Regular-4f53" d="M 1606 5350 
C 1286 4384 762 3424 192 2797 
C 288 2688 429 2432 474 2323 
C 666 2541 851 2790 1024 3066 
L 1024 -499 
L 1485 -499 
L 1485 3872 
C 1702 4307 1894 4768 2054 5222 
L 1606 5350 
z
M 2662 1120 
L 2662 678 
L 3718 678 
L 3718 -474 
L 4186 -474 
L 4186 678 
L 5216 678 
L 5216 1120 
L 4186 1120 
L 4186 3334 
C 4582 2221 5197 1146 5862 538 
C 5952 666 6112 832 6227 915 
C 5536 1472 4870 2547 4493 3622 
L 6106 3622 
L 6106 4083 
L 4186 4083 
L 4186 5357 
L 3718 5357 
L 3718 4083 
L 1907 4083 
L 1907 3622 
L 3430 3622 
C 3034 2534 2362 1446 1658 883 
C 1766 800 1926 634 2003 518 
C 2682 1133 3309 2189 3718 3315 
L 3718 1120 
L 2662 1120 
z
" transform="scale(0.015625)"/>
     </defs>
     <use xlink:href="#NotoSansCJKsc-Regular-5bf9"/>
     <use xlink:href="#NotoSansCJKsc-Regular-5e94" transform="translate(99.999985 0)"/>
     <use xlink:href="#NotoSansCJKsc-Regular-4ee3" transform="translate(199.999969 0)"/>
     <use xlink:href="#NotoSansCJKsc-Regular-7801" transform="translate(299.999954 0)"/>
     <use xlink:href="#NotoSansCJKsc-Regular-ff08" transform="translate(399.999939 0)"/>
     <use xlink:href="#NotoSansCJKsc-Regular-56" transform="translate(499.999924 0)"/>
     <use xlink:href="#NotoSansCJKsc-Regular-46" transform="translate(557.499908 0)"/>
     <use xlink:href="#NotoSansCJKsc-Regular-20" transform="translate(612.699905 0)"/>
     <use xlink:href="#NotoSansCJKsc-Regular-5faa" transform="translate(635.099899 0)"/>
     <use xlink:href="#NotoSansCJKsc-Regular-73af" transform="translate(735.099884 0)"/>
     <use xlink:href="#NotoSansCJKsc-Regular-4f53" transform="translate(835.099869 0)"/>
     <use xlink:href="#NotoSansCJKsc-Regular-ff09" transform="translate(935.099854 0)"/>
    </g>
   </g>
   <g id="text_43">
    <!-- ① -->
    <g style="fill: #3b7de0" transform="translate(184.32 372.819953) scale(0.094 -0.094)">
     <defs>
      <path id="NotoSansCJKsc-Bold-2460" d="M 3200 -589 
C 4851 -589 6221 755 6221 2432 
C 6221 4096 4864 5453 3200 5453 
C 1536 5453 179 4096 179 2432 
C 179 768 1536 -589 3200 -589 
z
M 3200 -352 
C 1664 -352 416 896 416 2432 
C 416 3955 1651 5216 3200 5216 
C 4736 5216 5984 3968 5984 2432 
C 5984 896 4736 -352 3200 -352 
z
M 2938 781 
L 3757 781 
L 3757 4141 
L 3142 4141 
C 2893 3994 2624 3904 2240 3827 
L 2240 3315 
L 2938 3315 
L 2938 781 
z
" transform="scale(0.015625)"/>
     </defs>
     <use xlink:href="#NotoSansCJKsc-Bold-2460"/>
    </g>
   </g>
   <g id="text_44">
    <text x="200.2" y="372.3" font-family="Noto Sans CJK SC" font-size="8.6" fill="#1f2733">LoadAlign&lt;DIST_E2B_B32&gt;(idxReg, idxAddr);</text>
   </g>
   <g id="text_45">
    <!-- ② -->
    <g style="fill: #ec9a0e" transform="translate(184.32 386.499953) scale(0.094 -0.094)">
     <defs>
      <path id="NotoSansCJKsc-Bold-2461" d="M 3200 -589 
C 4851 -589 6221 755 6221 2432 
C 6221 4096 4864 5453 3200 5453 
C 1536 5453 179 4096 179 2432 
C 179 768 1536 -589 3200 -589 
z
M 3200 -352 
C 1664 -352 416 896 416 2432 
C 416 3955 1651 5216 3200 5216 
C 4736 5216 5984 3968 5984 2432 
C 5984 896 4736 -352 3200 -352 
z
M 2029 781 
L 4518 781 
L 4518 1466 
L 3834 1466 
C 3642 1466 3379 1453 3194 1434 
C 3802 1971 4390 2579 4390 3162 
C 4390 3795 3917 4218 3194 4218 
C 2720 4218 2317 4045 1958 3680 
L 2406 3245 
C 2592 3411 2816 3584 3098 3584 
C 3430 3584 3603 3411 3603 3085 
C 3603 2611 2970 2042 2029 1254 
L 2029 781 
z
" transform="scale(0.015625)"/>
     </defs>
     <use xlink:href="#NotoSansCJKsc-Bold-2461"/>
    </g>
   </g>
   <g id="text_46">
    <text x="200.2" y="386.1" font-family="Noto Sans CJK SC" font-size="8.6" fill="#1f2733">Add(idxReg, idxReg, base);</text>
   </g>
   <g id="text_47">
    <!-- ③ -->
    <g style="fill: #3b7de0" transform="translate(184.32 400.179953) scale(0.094 -0.094)">
     <defs>
      <path id="NotoSansCJKsc-Bold-2462" d="M 3200 -589 
C 4851 -589 6221 755 6221 2432 
C 6221 4096 4864 5453 3200 5453 
C 1536 5453 179 4096 179 2432 
C 179 768 1536 -589 3200 -589 
z
M 3200 -352 
C 1664 -352 416 896 416 2432 
C 416 3955 1651 5216 3200 5216 
C 4736 5216 5984 3968 5984 2432 
C 5984 896 4736 -352 3200 -352 
z
M 3130 704 
C 3878 704 4499 1062 4499 1690 
C 4499 2131 4179 2406 3750 2522 
L 3750 2541 
C 4147 2694 4371 2938 4371 3277 
C 4371 3885 3866 4218 3110 4218 
C 2675 4218 2291 4058 1971 3782 
L 2374 3290 
C 2598 3488 2835 3597 3091 3597 
C 3398 3597 3558 3462 3558 3226 
C 3558 2957 3334 2790 2662 2790 
L 2662 2214 
C 3475 2214 3674 2042 3674 1754 
C 3674 1498 3437 1344 3117 1344 
C 2746 1344 2451 1504 2234 1702 
L 1856 1190 
C 2118 896 2586 704 3130 704 
z
" transform="scale(0.015625)"/>
     </defs>
     <use xlink:href="#NotoSansCJKsc-Bold-2462"/>
    </g>
   </g>
   <g id="text_48">
    <text x="200.2" y="399.8" font-family="Noto Sans CJK SC" font-size="8.6" fill="#1f2733">Gather(vregOut, dataAddr, idxReg, preg);</text>
   </g>
   <g id="text_49">
    <!-- ④ -->
    <g style="fill: #3b7de0" transform="translate(184.32 413.859953) scale(0.094 -0.094)">
     <defs>
      <path id="NotoSansCJKsc-Bold-2463" d="M 3200 -589 
C 4851 -589 6221 755 6221 2432 
C 6221 4096 4864 5453 3200 5453 
C 1536 5453 179 4096 179 2432 
C 179 768 1536 -589 3200 -589 
z
M 3200 -352 
C 1664 -352 416 896 416 2432 
C 416 3955 1651 5216 3200 5216 
C 4736 5216 5984 3968 5984 2432 
C 5984 896 4736 -352 3200 -352 
z
M 3264 781 
L 4026 781 
L 4026 1574 
L 4454 1574 
L 4454 2176 
L 4026 2176 
L 4026 4141 
L 3034 4141 
L 1670 2138 
L 1670 1574 
L 3264 1574 
L 3264 781 
z
M 3264 2176 
L 2445 2176 
L 2976 2944 
C 3091 3149 3149 3238 3264 3450 
L 3290 3450 
C 3277 3226 3264 2918 3264 2701 
L 3264 2176 
z
" transform="scale(0.015625)"/>
     </defs>
     <use xlink:href="#NotoSansCJKsc-Bold-2463"/>
    </g>
   </g>
   <g id="text_50">
    <text x="200.2" y="413.5" font-family="Noto Sans CJK SC" font-size="8.6" fill="#1f2733">StoreAlign&lt;DIST_NORM&gt;(outAddr, vregOut, preg);</text>
   </g>
   <text x="181.6" y="468.5" font-family="Noto Sans CJK SC" font-size="9.0" fill="#c42b22">代价：单轮仅覆盖 8 个 b32 索引、输出按块重复，远慢于连续搬运——可连续搬运时不使用 gather；b32 数据配 u32 索引。</text>
  </g>
 </g>
 <defs>
  <clipPath id="p4631579384">
   <rect x="0" y="0" width="806.4" height="489.6"/>
  </clipPath>
 </defs>
<defs><path id="NotoSansCJKsc-Regular-64" d="M 1773 -83 
C 2189 -83 2560 141 2829 410 
L 2848 410 
L 2899 0 
L 3379 0 
L 3379 5094 
L 2790 5094 
L 2790 3757 
L 2822 3162 
C 2515 3411 2253 3565 1843 3565 
C 1050 3565 339 2861 339 1734 
C 339 576 902 -83 1773 -83 
z
M 1901 410 
C 1293 410 941 902 941 1741 
C 941 2534 1389 3072 1946 3072 
C 2234 3072 2502 2970 2790 2707 
L 2790 883 
C 2502 563 2221 410 1901 410 
z
" transform="scale(0.015625)"/><path id="NotoSansCJKsc-Regular-78" d="M 96 0 
L 710 0 
L 1178 813 
C 1299 1024 1408 1235 1530 1434 
L 1562 1434 
C 1696 1235 1824 1024 1939 813 
L 2451 0 
L 3091 0 
L 1946 1754 
L 3002 3475 
L 2394 3475 
L 1965 2714 
C 1856 2515 1760 2330 1658 2131 
L 1626 2131 
C 1510 2330 1389 2515 1286 2714 
L 819 3475 
L 186 3475 
L 1242 1811 
L 96 0 
z
" transform="scale(0.015625)"/><path id="NotoSansCJKsc-Regular-3d" d="M 243 2912 
L 3315 2912 
L 3315 3347 
L 243 3347 
L 243 2912 
z
M 243 1376 
L 3315 1376 
L 3315 1811 
L 243 1811 
L 243 1376 
z
" transform="scale(0.015625)"/></defs><defs><path id="DejaVuSansMono-28" d="M 2766 4856 
Q 2350 4144 2145 3436 
Q 1941 2728 1941 2009 
Q 1941 1294 2145 584 
Q 2350 -125 2766 -844 
L 2266 -844 
Q 1794 -100 1562 604 
Q 1331 1309 1331 2009 
Q 1331 2706 1562 3412 
Q 1794 4119 2266 4856 
L 2766 4856 
z
" transform="scale(0.015625)"/><path id="DejaVuSansMono-29" d="M 1088 4856 
L 1588 4856 
Q 2059 4119 2290 3412 
Q 2522 2706 2522 2009 
Q 2522 1306 2290 600 
Q 2059 -106 1588 -844 
L 1088 -844 
Q 1503 -119 1708 590 
Q 1913 1300 1913 2009 
Q 1913 2722 1708 3431 
Q 1503 4141 1088 4856 
z
" transform="scale(0.015625)"/><path id="DejaVuSansMono-2c" d="M 1569 947 
L 2356 947 
L 2356 300 
L 1741 -897 
L 1259 -897 
L 1569 300 
L 1569 947 
z
" transform="scale(0.015625)"/><path id="DejaVuSansMono-3b" d="M 1569 947 
L 2356 947 
L 2356 300 
L 1741 -897 
L 1259 -897 
L 1569 300 
L 1569 947 
z
M 1528 3322 
L 2316 3322 
L 2316 2375 
L 1528 2375 
L 1528 3322 
z
" transform="scale(0.015625)"/><path id="DejaVuSansMono-41" d="M 1925 4109 
L 1259 1722 
L 2591 1722 
L 1925 4109 
z
M 1544 4666 
L 2309 4666 
L 3738 0 
L 3084 0 
L 2741 1216 
L 1106 1216 
L 769 0 
L 116 0 
L 1544 4666 
z
" transform="scale(0.015625)"/><path id="DejaVuSansMono-61" d="M 2194 1759 
L 2003 1759 
Q 1500 1759 1245 1582 
Q 991 1406 991 1056 
Q 991 741 1181 566 
Q 1372 391 1709 391 
Q 2184 391 2456 720 
Q 2728 1050 2731 1631 
L 2731 1759 
L 2194 1759 
z
M 3309 1997 
L 3309 0 
L 2731 0 
L 2731 519 
Q 2547 206 2267 57 
Q 1988 -91 1588 -91 
Q 1053 -91 734 211 
Q 416 513 416 1019 
Q 416 1603 808 1906 
Q 1200 2209 1959 2209 
L 2731 2209 
L 2731 2300 
Q 2728 2719 2518 2908 
Q 2309 3097 1850 3097 
Q 1556 3097 1256 3012 
Q 956 2928 672 2766 
L 672 3341 
Q 991 3463 1283 3523 
Q 1575 3584 1850 3584 
Q 2284 3584 2592 3456 
Q 2900 3328 3091 3072 
Q 3209 2916 3259 2686 
Q 3309 2456 3309 1997 
z
" transform="scale(0.015625)"/><path id="DejaVuSansMono-64" d="M 2681 3053 
L 2681 4863 
L 3256 4863 
L 3256 0 
L 2681 0 
L 2681 441 
Q 2538 181 2298 45 
Q 2059 -91 1747 -91 
Q 1113 -91 748 401 
Q 384 894 384 1759 
Q 384 2613 750 3098 
Q 1116 3584 1747 3584 
Q 2063 3584 2303 3448 
Q 2544 3313 2681 3053 
z
M 991 1747 
Q 991 1078 1203 737 
Q 1416 397 1831 397 
Q 2247 397 2464 740 
Q 2681 1084 2681 1747 
Q 2681 2413 2464 2755 
Q 2247 3097 1831 3097 
Q 1416 3097 1203 2756 
Q 991 2416 991 1747 
z
" transform="scale(0.015625)"/><path id="DejaVuSansMono-65" d="M 3475 1894 
L 3475 1613 
L 984 1613 
L 984 1594 
Q 984 1022 1282 709 
Q 1581 397 2125 397 
Q 2400 397 2700 484 
Q 3000 572 3341 750 
L 3341 178 
Q 3013 44 2708 -23 
Q 2403 -91 2119 -91 
Q 1303 -91 843 398 
Q 384 888 384 1747 
Q 384 2584 834 3084 
Q 1284 3584 2034 3584 
Q 2703 3584 3089 3131 
Q 3475 2678 3475 1894 
z
M 2900 2063 
Q 2888 2569 2661 2833 
Q 2434 3097 2009 3097 
Q 1594 3097 1325 2822 
Q 1056 2547 1006 2059 
L 2900 2063 
z
" transform="scale(0.015625)"/><path id="DejaVuSansMono-67" d="M 2681 1778 
Q 2681 2425 2470 2761 
Q 2259 3097 1856 3097 
Q 1434 3097 1212 2761 
Q 991 2425 991 1778 
Q 991 1131 1214 792 
Q 1438 453 1863 453 
Q 2259 453 2470 793 
Q 2681 1134 2681 1778 
z
M 3256 225 
Q 3256 -563 2884 -969 
Q 2513 -1375 1791 -1375 
Q 1553 -1375 1293 -1331 
Q 1034 -1288 775 -1203 
L 775 -634 
Q 1081 -778 1331 -847 
Q 1581 -916 1791 -916 
Q 2256 -916 2468 -662 
Q 2681 -409 2681 141 
L 2681 166 
L 2681 556 
Q 2544 263 2306 119 
Q 2069 -25 1728 -25 
Q 1116 -25 750 465 
Q 384 956 384 1778 
Q 384 2603 750 3093 
Q 1116 3584 1728 3584 
Q 2066 3584 2300 3450 
Q 2534 3316 2681 3034 
L 2681 3488 
L 3256 3488 
L 3256 225 
z
" transform="scale(0.015625)"/><path id="NotoSansCJKsc-Bold-61" d="M 1382 -90 
C 1798 -90 2157 109 2464 384 
L 2496 384 
L 2560 0 
L 3328 0 
L 3328 2093 
C 3328 3130 2861 3674 1952 3674 
C 1389 3674 877 3456 461 3200 
L 794 2573 
C 1126 2771 1446 2918 1779 2918 
C 2221 2918 2374 2650 2387 2298 
C 947 2144 326 1741 326 979 
C 326 365 742 -90 1382 -90 
z
M 1696 646 
C 1421 646 1222 768 1222 1050 
C 1222 1376 1510 1613 2387 1715 
L 2387 998 
C 2163 774 1965 646 1696 646 
z
" transform="scale(0.015625)"/><path id="NotoSansCJKsc-Bold-6e90" d="M 3763 2451 
L 5242 2451 
L 5242 2093 
L 3763 2093 
L 3763 2451 
z
M 3763 3315 
L 5242 3315 
L 5242 2970 
L 3763 2970 
L 3763 3315 
z
M 3194 1293 
C 3034 890 2778 442 2528 141 
C 2701 51 2989 -115 3130 -230 
C 3373 102 3674 640 3872 1094 
L 3194 1293 
z
M 5011 1107 
C 5216 698 5472 160 5587 -173 
L 6298 134 
C 6163 448 5888 979 5677 1363 
L 5011 1107 
z
M 480 4838 
C 813 4634 1299 4339 1530 4154 
L 1997 4762 
C 1747 4934 1248 5210 928 5389 
L 480 4838 
z
M 179 3110 
C 512 2918 992 2630 1222 2451 
L 1683 3072 
C 1427 3238 941 3494 614 3661 
L 179 3110 
z
M 256 -77 
L 960 -493 
C 1242 141 1542 883 1786 1574 
L 1158 1990 
C 883 1242 518 422 256 -77 
z
M 3085 3866 
L 3085 1542 
L 4102 1542 
L 4102 173 
C 4102 102 4077 83 4000 83 
C 3930 83 3667 83 3443 90 
C 3526 -96 3610 -371 3635 -570 
C 4038 -576 4333 -563 4557 -461 
C 4781 -358 4832 -173 4832 154 
L 4832 1542 
L 5952 1542 
L 5952 3866 
L 4723 3866 
L 4973 4288 
L 4250 4416 
L 6138 4416 
L 6138 5101 
L 2112 5101 
L 2112 3328 
C 2112 2291 2054 826 1331 -166 
C 1517 -250 1843 -454 1978 -576 
C 2746 493 2861 2189 2861 3328 
L 2861 4416 
L 4102 4416 
C 4070 4250 4006 4051 3942 3866 
L 3085 3866 
z
" transform="scale(0.015625)"/><path id="NotoSansCJKsc-Regular-ff08" d="M 4448 2432 
C 4448 1184 4954 166 5722 -614 
L 6106 -416 
C 5370 346 4915 1293 4915 2432 
C 4915 3571 5370 4518 6106 5280 
L 5722 5478 
C 4954 4698 4448 3680 4448 2432 
z
" transform="scale(0.015625)"/><path id="NotoSansCJKsc-Regular-ff09" d="M 1952 2432 
C 1952 3680 1446 4698 678 5478 
L 294 5280 
C 1030 4518 1485 3571 1485 2432 
C 1485 1293 1030 346 294 -416 
L 678 -614 
C 1446 166 1952 1184 1952 2432 
z
" transform="scale(0.015625)"/><path id="NotoSansCJKsc-Bold-41" d="M -26 0 
L 934 0 
L 1267 1216 
L 2797 1216 
L 3130 0 
L 4128 0 
L 2611 4742 
L 1491 4742 
L -26 0 
z
M 1472 1952 
L 1613 2470 
C 1754 2963 1888 3501 2016 4019 
L 2042 4019 
C 2182 3514 2310 2963 2458 2470 
L 2598 1952 
L 1472 1952 
z
" transform="scale(0.015625)"/><path id="NotoSansCJKsc-Bold-636e" d="M 3104 1491 
L 3104 -570 
L 3763 -570 
L 3763 -384 
L 5312 -384 
L 5312 -563 
L 6003 -563 
L 6003 1491 
L 4851 1491 
L 4851 2106 
L 6150 2106 
L 6150 2752 
L 4851 2752 
L 4851 3322 
L 5971 3322 
L 5971 5184 
L 2445 5184 
L 2445 3219 
C 2445 2214 2394 806 1754 -141 
C 1920 -224 2246 -454 2374 -589 
C 2867 134 3066 1171 3142 2106 
L 4134 2106 
L 4134 1491 
L 3104 1491 
z
M 3187 4525 
L 5248 4525 
L 5248 3974 
L 3187 3974 
L 3187 4525 
z
M 3187 3322 
L 4134 3322 
L 4134 2752 
L 3181 2752 
L 3187 3219 
L 3187 3322 
z
M 3763 224 
L 3763 864 
L 5312 864 
L 5312 224 
L 3763 224 
z
M 909 5434 
L 909 4224 
L 237 4224 
L 237 3520 
L 909 3520 
L 909 2374 
L 134 2189 
L 307 1453 
L 909 1626 
L 909 326 
C 909 243 883 218 806 218 
C 730 211 506 211 269 218 
C 365 19 448 -301 467 -486 
C 883 -486 1165 -461 1357 -339 
C 1555 -224 1613 -32 1613 320 
L 1613 1824 
L 2272 2022 
L 2176 2714 
L 1613 2560 
L 1613 3520 
L 2259 3520 
L 2259 4224 
L 1613 4224 
L 1613 5434 
L 909 5434 
z
" transform="scale(0.015625)"/><path id="NotoSansCJKsc-Bold-64" d="M 1766 -90 
C 2138 -90 2496 109 2758 371 
L 2784 371 
L 2854 0 
L 3622 0 
L 3622 5107 
L 2682 5107 
L 2682 3846 
L 2714 3283 
C 2458 3520 2208 3674 1805 3674 
C 1037 3674 301 2957 301 1792 
C 301 614 870 -90 1766 -90 
z
M 2010 685 
C 1536 685 1267 1056 1267 1805 
C 1267 2515 1606 2899 2010 2899 
C 2240 2899 2464 2829 2682 2630 
L 2682 1056 
C 2477 787 2259 685 2010 685 
z
" transform="scale(0.015625)"/><path id="NotoSansCJKsc-Bold-6570" d="M 2714 5363 
C 2611 5120 2432 4768 2291 4544 
L 2778 4326 
C 2944 4525 3149 4819 3360 5107 
L 2714 5363 
z
M 2394 1523 
C 2278 1299 2125 1101 1952 928 
L 1427 1184 
L 1619 1523 
L 2394 1523 
z
M 512 941 
C 806 826 1120 672 1427 512 
C 1062 288 634 122 166 19 
C 294 -115 442 -384 512 -557 
C 1088 -397 1606 -166 2042 160 
C 2227 45 2394 -70 2528 -173 
L 2982 326 
C 2854 416 2694 512 2528 614 
C 2854 986 3104 1446 3264 2016 
L 2848 2170 
L 2733 2144 
L 1926 2144 
L 2029 2394 
L 1350 2515 
C 1306 2394 1254 2272 1197 2144 
L 384 2144 
L 384 1523 
L 877 1523 
C 755 1306 627 1107 512 941 
z
M 429 5101 
C 582 4851 736 4518 781 4301 
L 275 4301 
L 275 3699 
L 1222 3699 
C 928 3386 518 3104 141 2950 
C 282 2810 448 2560 538 2387 
C 858 2566 1197 2829 1491 3123 
L 1491 2554 
L 2202 2554 
L 2202 3245 
C 2445 3053 2694 2842 2835 2707 
L 3238 3238 
C 3123 3322 2771 3533 2477 3699 
L 3418 3699 
L 3418 4301 
L 2202 4301 
L 2202 5440 
L 1491 5440 
L 1491 4301 
L 832 4301 
L 1363 4531 
C 1312 4762 1146 5088 979 5331 
L 429 5101 
z
M 3917 5421 
C 3776 4269 3488 3174 2976 2509 
C 3130 2400 3418 2150 3526 2022 
C 3648 2195 3763 2387 3866 2598 
C 3987 2112 4134 1658 4320 1254 
C 3987 717 3520 314 2874 19 
C 3002 -128 3206 -448 3270 -602 
C 3872 -294 4339 90 4698 570 
C 4986 128 5344 -243 5786 -518 
C 5894 -326 6118 -51 6285 83 
C 5798 352 5414 755 5114 1254 
C 5421 1888 5613 2643 5734 3546 
L 6138 3546 
L 6138 4256 
L 4422 4256 
C 4499 4602 4570 4954 4621 5318 
L 3917 5421 
z
M 5018 3546 
C 4954 3002 4858 2515 4710 2093 
C 4538 2541 4410 3027 4320 3546 
L 5018 3546 
z
" transform="scale(0.015625)"/><path id="NotoSansCJKsc-Bold-72" d="M 506 0 
L 1446 0 
L 1446 2138 
C 1651 2656 1984 2842 2259 2842 
C 2413 2842 2515 2822 2643 2784 
L 2797 3597 
C 2694 3642 2579 3674 2381 3674 
C 2010 3674 1626 3418 1363 2950 
L 1344 2950 
L 1274 3584 
L 506 3584 
L 506 0 
z
" transform="scale(0.015625)"/><path id="NotoSansCJKsc-Bold-74" d="M 1818 -90 
C 2131 -90 2381 -13 2579 45 
L 2419 730 
C 2323 691 2182 653 2067 653 
C 1747 653 1574 845 1574 1254 
L 1574 2842 
L 2464 2842 
L 2464 3584 
L 1574 3584 
L 1574 4550 
L 800 4550 
L 691 3584 
L 134 3539 
L 134 2842 
L 640 2842 
L 640 1248 
C 640 454 966 -90 1818 -90 
z
" transform="scale(0.015625)"/><path id="NotoSansCJKsc-Bold-5b" d="M 646 -1101 
L 2112 -1101 
L 2112 -602 
L 1350 -602 
L 1350 4634 
L 2112 4634 
L 2112 5139 
L 646 5139 
L 646 -1101 
z
" transform="scale(0.015625)"/><path id="NotoSansCJKsc-Bold-5d" d="M 307 -1101 
L 1766 -1101 
L 1766 5139 
L 307 5139 
L 307 4634 
L 1069 4634 
L 1069 -602 
L 307 -602 
L 307 -1101 
z
" transform="scale(0.015625)"/><path id="DejaVuSansMono-52" d="M 2375 2203 
Q 2619 2141 2791 1967 
Q 2963 1794 3219 1275 
L 3853 0 
L 3175 0 
L 2619 1178 
Q 2378 1681 2186 1826 
Q 1994 1972 1684 1972 
L 1081 1972 
L 1081 0 
L 447 0 
L 447 4666 
L 1747 4666 
Q 2516 4666 2925 4319 
Q 3334 3972 3334 3316 
Q 3334 2853 3082 2561 
Q 2831 2269 2375 2203 
z
M 1081 4147 
L 1081 2491 
L 1772 2491 
Q 2225 2491 2447 2694 
Q 2669 2897 2669 3316 
Q 2669 3719 2433 3933 
Q 2197 4147 1747 4147 
L 1081 4147 
z
" transform="scale(0.015625)"/><path id="DejaVuSansMono-69" d="M 800 3500 
L 2272 3500 
L 2272 447 
L 3413 447 
L 3413 0 
L 556 0 
L 556 447 
L 1697 447 
L 1697 3053 
L 800 3053 
L 800 3500 
z
M 1697 4863 
L 2272 4863 
L 2272 4134 
L 1697 4134 
L 1697 4863 
z
" transform="scale(0.015625)"/></defs></svg>
