<?xml version="1.0" encoding="utf-8" standalone="no"?>
<!DOCTYPE svg PUBLIC "-//W3C//DTD SVG 1.1//EN"
  "http://www.w3.org/Graphics/SVG/1.1/DTD/svg11.dtd">
<svg xmlns:xlink="http://www.w3.org/1999/xlink" width="648pt" height="293.76pt" viewBox="0 0 648 293.76" xmlns="http://www.w3.org/2000/svg" version="1.1">
 <metadata>
  <rdf:RDF xmlns:dc="http://purl.org/dc/elements/1.1/" xmlns:cc="http://creativecommons.org/ns#" xmlns:rdf="http://www.w3.org/1999/02/22-rdf-syntax-ns#">
   <cc:Work>
    <dc:type rdf:resource="http://purl.org/dc/dcmitype/StillImage"/>
    <dc:date>2026-06-06T01:57:05.775457</dc:date>
    <dc:format>image/svg+xml</dc:format>
    <dc:creator>
     <cc:Agent>
      <dc:title>Matplotlib v3.10.8, https://matplotlib.org/</dc:title>
     </cc:Agent>
    </dc:creator>
   </cc:Work>
  </rdf:RDF>
 </metadata>
 <defs>
  <style type="text/css">*{stroke-linejoin: round; stroke-linecap: butt}</style>
 </defs>
 <g id="figure_1">
  <g id="patch_1">
   <path d="M 0 293.76 
L 648 293.76 
L 648 0 
L 0 0 
z
" style="fill: #ffffff"/>
  </g>
  <g id="axes_1">
   <g id="patch_2">
    <path d="M 151.2 86.4 
L 197.28 86.4 
L 197.28 113.76 
L 151.2 113.76 
z
" clip-path="url(#p34913f050c)" style="fill: #e8f0fe; stroke: #3b7de0; stroke-width: 1.1; stroke-linejoin: miter"/>
   </g>
   <g id="patch_3">
    <path d="M 197.28 86.4 
L 243.36 86.4 
L 243.36 113.76 
L 197.28 113.76 
z
" clip-path="url(#p34913f050c)" style="fill: #e8f0fe; stroke: #3b7de0; stroke-width: 1.1; stroke-linejoin: miter"/>
   </g>
   <g id="patch_4">
    <path d="M 243.36 86.4 
L 289.44 86.4 
L 289.44 113.76 
L 243.36 113.76 
z
" clip-path="url(#p34913f050c)" style="fill: #e8f0fe; stroke: #3b7de0; stroke-width: 1.1; stroke-linejoin: miter"/>
   </g>
   <g id="patch_5">
    <path d="M 289.44 86.4 
L 335.52 86.4 
L 335.52 113.76 
L 289.44 113.76 
z
" clip-path="url(#p34913f050c)" style="fill: #e8f0fe; stroke: #3b7de0; stroke-width: 1.1; stroke-linejoin: miter"/>
   </g>
   <g id="patch_6">
    <path d="M 335.52 86.4 
L 381.6 86.4 
L 381.6 113.76 
L 335.52 113.76 
z
" clip-path="url(#p34913f050c)" style="fill: #e8f0fe; stroke: #3b7de0; stroke-width: 1.1; stroke-linejoin: miter"/>
   </g>
   <g id="patch_7">
    <path d="M 381.6 86.4 
L 427.68 86.4 
L 427.68 113.76 
L 381.6 113.76 
z
" clip-path="url(#p34913f050c)" style="fill: #e8f0fe; stroke: #3b7de0; stroke-width: 1.1; stroke-linejoin: miter"/>
   </g>
   <g id="patch_8">
    <path d="M 427.68 86.4 
L 473.76 86.4 
L 473.76 113.76 
L 427.68 113.76 
z
" clip-path="url(#p34913f050c)" style="fill: #e8f0fe; stroke: #3b7de0; stroke-width: 1.1; stroke-linejoin: miter"/>
   </g>
   <g id="patch_9">
    <path d="M 473.76 86.4 
L 519.84 86.4 
L 519.84 113.76 
L 473.76 113.76 
z
" clip-path="url(#p34913f050c)" style="fill: #e8f0fe; stroke: #3b7de0; stroke-width: 1.1; stroke-linejoin: miter"/>
   </g>
   <g id="patch_10">
    <path d="M 151.2 144 
L 197.28 144 
L 197.28 171.36 
L 151.2 171.36 
z
" clip-path="url(#p34913f050c)" style="fill: #fef4dc; stroke: #ec9a0e; stroke-width: 1.1; stroke-linejoin: miter"/>
   </g>
   <g id="patch_11">
    <path d="M 197.28 144 
L 243.36 144 
L 243.36 171.36 
L 197.28 171.36 
z
" clip-path="url(#p34913f050c)" style="fill: #fef4dc; stroke: #ec9a0e; stroke-width: 1.1; stroke-linejoin: miter"/>
   </g>
   <g id="patch_12">
    <path d="M 243.36 144 
L 289.44 144 
L 289.44 171.36 
L 243.36 171.36 
z
" clip-path="url(#p34913f050c)" style="fill: #fef4dc; stroke: #ec9a0e; stroke-width: 1.1; stroke-linejoin: miter"/>
   </g>
   <g id="patch_13">
    <path d="M 289.44 144 
L 335.52 144 
L 335.52 171.36 
L 289.44 171.36 
z
" clip-path="url(#p34913f050c)" style="fill: #fef4dc; stroke: #ec9a0e; stroke-width: 1.1; stroke-linejoin: miter"/>
   </g>
   <g id="patch_14">
    <path d="M 335.52 144 
L 381.6 144 
L 381.6 171.36 
L 335.52 171.36 
z
" clip-path="url(#p34913f050c)" style="fill: #fef4dc; stroke: #ec9a0e; stroke-width: 1.1; stroke-linejoin: miter"/>
   </g>
   <g id="patch_15">
    <path d="M 381.6 144 
L 427.68 144 
L 427.68 171.36 
L 381.6 171.36 
z
" clip-path="url(#p34913f050c)" style="fill: #fef4dc; stroke: #ec9a0e; stroke-width: 1.1; stroke-linejoin: miter"/>
   </g>
   <g id="patch_16">
    <path d="M 427.68 144 
L 473.76 144 
L 473.76 171.36 
L 427.68 171.36 
z
" clip-path="url(#p34913f050c)" style="fill: #fef4dc; stroke: #ec9a0e; stroke-width: 1.1; stroke-linejoin: miter"/>
   </g>
   <g id="patch_17">
    <path d="M 473.76 144 
L 519.84 144 
L 519.84 171.36 
L 473.76 171.36 
z
" clip-path="url(#p34913f050c)" style="fill: #fef4dc; stroke: #ec9a0e; stroke-width: 1.1; stroke-linejoin: miter"/>
   </g>
   <g id="patch_18">
    <path d="M 105.84 188.64 
L 542.16 188.64 
Q 547.2 188.64 547.2 193.68 
L 547.2 249.12 
Q 547.2 254.16 542.16 254.16 
L 105.84 254.16 
Q 100.8 254.16 100.8 249.12 
L 100.8 193.68 
Q 100.8 188.64 105.84 188.64 
z
" clip-path="url(#p34913f050c)" style="fill: #f6f8fb; stroke: #d4dce6; stroke-linejoin: miter"/>
   </g>
   <g id="patch_19">
    <path d="M 100.8 188.64 
L 104.4 188.64 
L 104.4 254.16 
L 100.8 254.16 
z
" clip-path="url(#p34913f050c)" style="fill: #b7c0cc"/>
   </g>
   <g id="patch_20">
    <path d="M 243.36 144 
Q 243.36 128.88 243.36 115.772461 
" clip-path="url(#p34913f050c)" style="fill: none; stroke: #ec9a0e; stroke-width: 1.8; stroke-linecap: round"/>
    <path d="M 241.16 120.172461 
L 243.36 115.772461 
L 245.56 120.172461 
z
" clip-path="url(#p34913f050c)" style="fill: #ec9a0e; stroke: #ec9a0e; stroke-width: 1.8; stroke-linecap: round"/>
   </g>
   <g id="patch_21">
    <path d="M 427.68 113.76 
Q 427.68 128.88 427.68 141.987539 
" clip-path="url(#p34913f050c)" style="fill: none; stroke: #3b7de0; stroke-width: 1.8; stroke-linecap: round"/>
    <path d="M 429.88 137.587539 
L 427.68 141.987539 
L 425.48 137.587539 
z
" clip-path="url(#p34913f050c)" style="fill: #3b7de0; stroke: #3b7de0; stroke-width: 1.8; stroke-linecap: round"/>
   </g>
   <text x="71.8" y="26.6" font-family="Noto Sans CJK SC" font-size="16.0" fill="#1f2733">MaskDist：MaskReg 位流 ↔ UB（整型位流访问，固定 256 bit）</text>
   <g id="text_2">
    <!-- 1 -->
    <g style="fill: #1f2733" transform="translate(171.576 102.801) scale(0.096 -0.096)">
     <defs>
      <path id="NotoSansCJKsc-Regular-31" d="M 563 0 
L 3136 0 
L 3136 486 
L 2195 486 
L 2195 4691 
L 1747 4691 
C 1491 4544 1190 4435 774 4358 
L 774 3987 
L 1613 3987 
L 1613 486 
L 563 486 
L 563 0 
z
" transform="scale(0.015625)"/>
     </defs>
     <use xlink:href="#NotoSansCJKsc-Regular-31"/>
    </g>
   </g>
   <g id="text_3">
    <!-- 0 -->
    <g style="fill: #1f2733" transform="translate(217.656 102.801) scale(0.096 -0.096)">
     <defs>
      <path id="NotoSansCJKsc-Regular-30" d="M 1779 -83 
C 2669 -83 3238 723 3238 2362 
C 3238 3987 2669 4774 1779 4774 
C 883 4774 320 3987 320 2362 
C 320 723 883 -83 1779 -83 
z
M 1779 390 
C 1248 390 883 986 883 2362 
C 883 3731 1248 4314 1779 4314 
C 2310 4314 2675 3731 2675 2362 
C 2675 986 2310 390 1779 390 
z
" transform="scale(0.015625)"/>
     </defs>
     <use xlink:href="#NotoSansCJKsc-Regular-30"/>
    </g>
   </g>
   <g id="text_4">
    <!-- 1 -->
    <g style="fill: #1f2733" transform="translate(263.736 102.801) scale(0.096 -0.096)">
     <use xlink:href="#NotoSansCJKsc-Regular-31"/>
    </g>
   </g>
   <g id="text_5">
    <!-- 1 -->
    <g style="fill: #1f2733" transform="translate(309.816 102.801) scale(0.096 -0.096)">
     <use xlink:href="#NotoSansCJKsc-Regular-31"/>
    </g>
   </g>
   <g id="text_6">
    <!-- 0 -->
    <g style="fill: #1f2733" transform="translate(355.896 102.801) scale(0.096 -0.096)">
     <use xlink:href="#NotoSansCJKsc-Regular-30"/>
    </g>
   </g>
   <g id="text_7">
    <!-- 0 -->
    <g style="fill: #1f2733" transform="translate(401.976 102.801) scale(0.096 -0.096)">
     <use xlink:href="#NotoSansCJKsc-Regular-30"/>
    </g>
   </g>
   <g id="text_8">
    <!-- 1 -->
    <g style="fill: #1f2733" transform="translate(448.056 102.801) scale(0.096 -0.096)">
     <use xlink:href="#NotoSansCJKsc-Regular-31"/>
    </g>
   </g>
   <g id="text_9">
    <!-- 0 -->
    <g style="fill: #1f2733" transform="translate(494.136 102.801) scale(0.096 -0.096)">
     <use xlink:href="#NotoSansCJKsc-Regular-30"/>
    </g>
   </g>
   <text x="144" y="102.8" font-family="Noto Sans CJK SC" font-size="9.4" fill="#1956b3" text-anchor="end">UB（位流，按 int32 访问）</text>
   <g id="text_11">
    <!-- ✓ -->
    <g style="fill: #1f2733" transform="translate(170.96175 160.401) scale(0.096 -0.096)">
     <defs>
      <path id="NotoSansCJKsc-Regular-2713" d="M 1082 -141 
L 1690 -70 
C 2234 1856 3270 3482 4403 4538 
L 4019 4890 
C 2899 3789 1875 2035 1376 339 
L 1344 339 
C 1120 973 794 1645 397 2234 
L 0 1965 
C 448 1318 794 640 1082 -141 
z
" transform="scale(0.015625)"/>
     </defs>
     <use xlink:href="#NotoSansCJKsc-Regular-2713"/>
    </g>
   </g>
   <g id="text_12">
    <!-- · -->
    <g style="fill: #1f2733" transform="translate(215.52 160.401) scale(0.096 -0.096)">
     <defs>
      <path id="NotoSansCJKsc-Regular-b7" d="M 3200 3110 
C 2822 3110 2522 2810 2522 2432 
C 2522 2054 2822 1754 3200 1754 
C 3578 1754 3878 2054 3878 2432 
C 3878 2810 3578 3110 3200 3110 
z
" transform="scale(0.015625)"/>
     </defs>
     <use xlink:href="#NotoSansCJKsc-Regular-b7"/>
    </g>
   </g>
   <g id="text_13">
    <!-- ✓ -->
    <g style="fill: #1f2733" transform="translate(263.12175 160.401) scale(0.096 -0.096)">
     <use xlink:href="#NotoSansCJKsc-Regular-2713"/>
    </g>
   </g>
   <g id="text_14">
    <!-- ✓ -->
    <g style="fill: #1f2733" transform="translate(309.20175 160.401) scale(0.096 -0.096)">
     <use xlink:href="#NotoSansCJKsc-Regular-2713"/>
    </g>
   </g>
   <g id="text_15">
    <!-- · -->
    <g style="fill: #1f2733" transform="translate(353.76 160.401) scale(0.096 -0.096)">
     <use xlink:href="#NotoSansCJKsc-Regular-b7"/>
    </g>
   </g>
   <g id="text_16">
    <!-- · -->
    <g style="fill: #1f2733" transform="translate(399.84 160.401) scale(0.096 -0.096)">
     <use xlink:href="#NotoSansCJKsc-Regular-b7"/>
    </g>
   </g>
   <g id="text_17">
    <!-- ✓ -->
    <g style="fill: #1f2733" transform="translate(447.44175 160.401) scale(0.096 -0.096)">
     <use xlink:href="#NotoSansCJKsc-Regular-2713"/>
    </g>
   </g>
   <g id="text_18">
    <!-- · -->
    <g style="fill: #1f2733" transform="translate(492 160.401) scale(0.096 -0.096)">
     <use xlink:href="#NotoSansCJKsc-Regular-b7"/>
    </g>
   </g>
   <text x="126.2" y="160.6" font-family="Noto Sans CJK SC" font-size="9.4" fill="#9a6300" text-anchor="end">MaskReg（1 bit/lane）</text>
   <g id="text_20">
    <text x="91.5" y="126.5" font-family="Noto Sans CJK SC" font-size="8.4" fill="#9a6300">① 存 StoreAlign(maskAddr, cmpMask)</text>
    <text x="188.7" y="136.5" font-family="Noto Sans CJK SC" font-size="8.4" fill="#9a6300">目标 UB 在前</text>
   </g>
   <g id="text_21">
    <text x="433.4" y="126.1" font-family="Noto Sans CJK SC" font-size="8.4" fill="#1956b3">② 读 LoadAlign(refMask, maskAddr)</text>
    <text x="433.4" y="136.7" font-family="Noto Sans CJK SC" font-size="8.4" fill="#1956b3">目标 MaskReg 在前</text>
   </g>
   <g id="text_22">
    <text x="110.9" y="200.9" font-family="Noto Sans CJK SC" font-size="7.8" fill="#5a6573">对应代码（VF 循环体）</text>
   </g>
   <g id="text_23">
    <!-- ① -->
    <g style="fill: #ec9a0e" transform="translate(112.32 214.419953) scale(0.094 -0.094)">
     <defs>
      <path id="NotoSansCJKsc-Bold-2460" d="M 3200 -589 
C 4851 -589 6221 755 6221 2432 
C 6221 4096 4864 5453 3200 5453 
C 1536 5453 179 4096 179 2432 
C 179 768 1536 -589 3200 -589 
z
M 3200 -352 
C 1664 -352 416 896 416 2432 
C 416 3955 1651 5216 3200 5216 
C 4736 5216 5984 3968 5984 2432 
C 5984 896 4736 -352 3200 -352 
z
M 2938 781 
L 3757 781 
L 3757 4141 
L 3142 4141 
C 2893 3994 2624 3904 2240 3827 
L 2240 3315 
L 2938 3315 
L 2938 781 
z
" transform="scale(0.015625)"/>
     </defs>
     <use xlink:href="#NotoSansCJKsc-Bold-2460"/>
    </g>
   </g>
   <g id="text_24">
    <text x="128.2" y="213.9" font-family="Noto Sans CJK SC" font-size="8.6" fill="#1f2733">StoreAlign&lt;MaskDist::DIST_NORM&gt;(maskAddr, cmpMask);</text>
   </g>
   <g id="text_25">
    <!-- ② -->
    <g style="fill: #3b7de0" transform="translate(112.32 228.099953) scale(0.094 -0.094)">
     <defs>
      <path id="NotoSansCJKsc-Bold-2461" d="M 3200 -589 
C 4851 -589 6221 755 6221 2432 
C 6221 4096 4864 5453 3200 5453 
C 1536 5453 179 4096 179 2432 
C 179 768 1536 -589 3200 -589 
z
M 3200 -352 
C 1664 -352 416 896 416 2432 
C 416 3955 1651 5216 3200 5216 
C 4736 5216 5984 3968 5984 2432 
C 5984 896 4736 -352 3200 -352 
z
M 2029 781 
L 4518 781 
L 4518 1466 
L 3834 1466 
C 3642 1466 3379 1453 3194 1434 
C 3802 1971 4390 2579 4390 3162 
C 4390 3795 3917 4218 3194 4218 
C 2720 4218 2317 4045 1958 3680 
L 2406 3245 
C 2592 3411 2816 3584 3098 3584 
C 3430 3584 3603 3411 3603 3085 
C 3603 2611 2970 2042 2029 1254 
L 2029 781 
z
" transform="scale(0.015625)"/>
     </defs>
     <use xlink:href="#NotoSansCJKsc-Bold-2461"/>
    </g>
   </g>
   <g id="text_26">
    <text x="128.2" y="227.6" font-family="Noto Sans CJK SC" font-size="8.6" fill="#1f2733">LoadAlign&lt;MaskDist::DIST_NORM&gt;(refMask, maskAddr);</text>
   </g>
   <g id="text_27">
    <!-- ③ -->
    <g style="fill: #c42b22" transform="translate(112.32 241.779953) scale(0.094 -0.094)">
     <defs>
      <path id="NotoSansCJKsc-Bold-2462" d="M 3200 -589 
C 4851 -589 6221 755 6221 2432 
C 6221 4096 4864 5453 3200 5453 
C 1536 5453 179 4096 179 2432 
C 179 768 1536 -589 3200 -589 
z
M 3200 -352 
C 1664 -352 416 896 416 2432 
C 416 3955 1651 5216 3200 5216 
C 4736 5216 5984 3968 5984 2432 
C 5984 896 4736 -352 3200 -352 
z
M 3130 704 
C 3878 704 4499 1062 4499 1690 
C 4499 2131 4179 2406 3750 2522 
L 3750 2541 
C 4147 2694 4371 2938 4371 3277 
C 4371 3885 3866 4218 3110 4218 
C 2675 4218 2291 4058 1971 3782 
L 2374 3290 
C 2598 3488 2835 3597 3091 3597 
C 3398 3597 3558 3462 3558 3226 
C 3558 2957 3334 2790 2662 2790 
L 2662 2214 
C 3475 2214 3674 2042 3674 1754 
C 3674 1498 3437 1344 3117 1344 
C 2746 1344 2451 1504 2234 1702 
L 1856 1190 
C 2118 896 2586 704 3130 704 
z
" transform="scale(0.015625)"/>
     </defs>
     <use xlink:href="#NotoSansCJKsc-Bold-2462"/>
    </g>
   </g>
   <g id="text_28">
    <text x="128.2" y="241.4" font-family="Noto Sans CJK SC" font-size="8.6" fill="#1f2733">MaskAnd(m, m, refMask, all);  Select(out, zeros, data, m);</text>
   </g>
   <text x="122.8" y="287.0" font-family="Noto Sans CJK SC" font-size="9.0" fill="#5a6573">目标在前、源在后；按数据类型解释位流无意义；同地址存→读需插 LocalMemBar；US/DS 采样时 mask 同步采样。</text>
  </g>
 </g>
 <defs>
  <clipPath id="p34913f050c">
   <rect x="0" y="0" width="648" height="293.76"/>
  </clipPath>
 </defs>
<defs><path id="DejaVuSansMono-28" d="M 2766 4856 
Q 2350 4144 2145 3436 
Q 1941 2728 1941 2009 
Q 1941 1294 2145 584 
Q 2350 -125 2766 -844 
L 2266 -844 
Q 1794 -100 1562 604 
Q 1331 1309 1331 2009 
Q 1331 2706 1562 3412 
Q 1794 4119 2266 4856 
L 2766 4856 
z
" transform="scale(0.015625)"/><path id="DejaVuSansMono-29" d="M 1088 4856 
L 1588 4856 
Q 2059 4119 2290 3412 
Q 2522 2706 2522 2009 
Q 2522 1306 2290 600 
Q 2059 -106 1588 -844 
L 1088 -844 
Q 1503 -119 1708 590 
Q 1913 1300 1913 2009 
Q 1913 2722 1708 3431 
Q 1503 4141 1088 4856 
z
" transform="scale(0.015625)"/><path id="DejaVuSansMono-2c" d="M 1569 947 
L 2356 947 
L 2356 300 
L 1741 -897 
L 1259 -897 
L 1569 300 
L 1569 947 
z
" transform="scale(0.015625)"/><path id="DejaVuSansMono-3b" d="M 1569 947 
L 2356 947 
L 2356 300 
L 1741 -897 
L 1259 -897 
L 1569 300 
L 1569 947 
z
M 1528 3322 
L 2316 3322 
L 2316 2375 
L 1528 2375 
L 1528 3322 
z
" transform="scale(0.015625)"/><path id="DejaVuSansMono-41" d="M 1925 4109 
L 1259 1722 
L 2591 1722 
L 1925 4109 
z
M 1544 4666 
L 2309 4666 
L 3738 0 
L 3084 0 
L 2741 1216 
L 1106 1216 
L 769 0 
L 116 0 
L 1544 4666 
z
" transform="scale(0.015625)"/><path id="DejaVuSansMono-61" d="M 2194 1759 
L 2003 1759 
Q 1500 1759 1245 1582 
Q 991 1406 991 1056 
Q 991 741 1181 566 
Q 1372 391 1709 391 
Q 2184 391 2456 720 
Q 2728 1050 2731 1631 
L 2731 1759 
L 2194 1759 
z
M 3309 1997 
L 3309 0 
L 2731 0 
L 2731 519 
Q 2547 206 2267 57 
Q 1988 -91 1588 -91 
Q 1053 -91 734 211 
Q 416 513 416 1019 
Q 416 1603 808 1906 
Q 1200 2209 1959 2209 
L 2731 2209 
L 2731 2300 
Q 2728 2719 2518 2908 
Q 2309 3097 1850 3097 
Q 1556 3097 1256 3012 
Q 956 2928 672 2766 
L 672 3341 
Q 991 3463 1283 3523 
Q 1575 3584 1850 3584 
Q 2284 3584 2592 3456 
Q 2900 3328 3091 3072 
Q 3209 2916 3259 2686 
Q 3309 2456 3309 1997 
z
" transform="scale(0.015625)"/><path id="DejaVuSansMono-64" d="M 2681 3053 
L 2681 4863 
L 3256 4863 
L 3256 0 
L 2681 0 
L 2681 441 
Q 2538 181 2298 45 
Q 2059 -91 1747 -91 
Q 1113 -91 748 401 
Q 384 894 384 1759 
Q 384 2613 750 3098 
Q 1116 3584 1747 3584 
Q 2063 3584 2303 3448 
Q 2544 3313 2681 3053 
z
M 991 1747 
Q 991 1078 1203 737 
Q 1416 397 1831 397 
Q 2247 397 2464 740 
Q 2681 1084 2681 1747 
Q 2681 2413 2464 2755 
Q 2247 3097 1831 3097 
Q 1416 3097 1203 2756 
Q 991 2416 991 1747 
z
" transform="scale(0.015625)"/><path id="DejaVuSansMono-6b" d="M 738 4863 
L 1331 4863 
L 1331 2047 
L 2841 3500 
L 3541 3500 
L 2163 2181 
L 3756 0 
L 3053 0 
L 1759 1806 
L 1331 1403 
L 1331 0 
L 738 0 
L 738 4863 
z
" transform="scale(0.015625)"/><path id="DejaVuSansMono-6d" d="M 2113 3144 
Q 2219 3369 2383 3476 
Q 2547 3584 2778 3584 
Q 3200 3584 3373 3257 
Q 3547 2931 3547 2028 
L 3547 0 
L 3022 0 
L 3022 2003 
Q 3022 2744 2939 2923 
Q 2856 3103 2638 3103 
Q 2388 3103 2295 2911 
Q 2203 2719 2203 2003 
L 2203 0 
L 1678 0 
L 1678 2003 
Q 1678 2753 1589 2928 
Q 1500 3103 1269 3103 
Q 1041 3103 952 2911 
Q 863 2719 863 2003 
L 863 0 
L 341 0 
L 341 3500 
L 863 3500 
L 863 3200 
Q 966 3388 1120 3486 
Q 1275 3584 1472 3584 
Q 1709 3584 1867 3475 
Q 2025 3366 2113 3144 
z
" transform="scale(0.015625)"/><path id="DejaVuSansMono-72" d="M 3609 2778 
Q 3425 2922 3234 2987 
Q 3044 3053 2816 3053 
Q 2278 3053 1993 2715 
Q 1709 2378 1709 1741 
L 1709 0 
L 1131 0 
L 1131 3500 
L 1709 3500 
L 1709 2816 
Q 1853 3188 2151 3386 
Q 2450 3584 2859 3584 
Q 3072 3584 3256 3531 
Q 3441 3478 3609 3366 
L 3609 2778 
z
" transform="scale(0.015625)"/><path id="DejaVuSansMono-73" d="M 3041 3378 
L 3041 2816 
Q 2794 2959 2544 3031 
Q 2294 3103 2034 3103 
Q 1644 3103 1451 2976 
Q 1259 2850 1259 2591 
Q 1259 2356 1403 2240 
Q 1547 2125 2119 2016 
L 2350 1972 
Q 2778 1891 2998 1647 
Q 3219 1403 3219 1013 
Q 3219 494 2850 201 
Q 2481 -91 1825 -91 
Q 1566 -91 1281 -36 
Q 997 19 666 128 
L 666 722 
Q 988 556 1281 473 
Q 1575 391 1838 391 
Q 2219 391 2428 545 
Q 2638 700 2638 978 
Q 2638 1378 1872 1531 
L 1847 1538 
L 1631 1581 
Q 1134 1678 906 1908 
Q 678 2138 678 2534 
Q 678 3038 1018 3311 
Q 1359 3584 1991 3584 
Q 2272 3584 2531 3532 
Q 2791 3481 3041 3378 
z
" transform="scale(0.015625)"/><path id="NotoSansCJKsc-Regular-61" d="M 1389 -83 
C 1818 -83 2208 141 2541 416 
L 2560 416 
L 2611 0 
L 3091 0 
L 3091 2138 
C 3091 3002 2739 3565 1888 3565 
C 1325 3565 838 3315 525 3110 
L 749 2707 
C 1024 2893 1389 3078 1792 3078 
C 2362 3078 2509 2650 2509 2202 
C 1030 2035 378 1658 378 902 
C 378 275 806 -83 1389 -83 
z
M 1555 390 
C 1210 390 941 544 941 941 
C 941 1389 1338 1677 2509 1811 
L 2509 845 
C 2170 544 1888 390 1555 390 
z
" transform="scale(0.015625)"/><path id="NotoSansCJKsc-Regular-64" d="M 1773 -83 
C 2189 -83 2560 141 2829 410 
L 2848 410 
L 2899 0 
L 3379 0 
L 3379 5094 
L 2790 5094 
L 2790 3757 
L 2822 3162 
C 2515 3411 2253 3565 1843 3565 
C 1050 3565 339 2861 339 1734 
C 339 576 902 -83 1773 -83 
z
M 1901 410 
C 1293 410 941 902 941 1741 
C 941 2534 1389 3072 1946 3072 
C 2234 3072 2502 2970 2790 2707 
L 2790 883 
C 2502 563 2221 410 1901 410 
z
" transform="scale(0.015625)"/><path id="NotoSansCJKsc-Regular-6b" d="M 589 0 
L 1165 0 
L 1165 915 
L 1818 1677 
L 2835 0 
L 3469 0 
L 2157 2074 
L 3315 3475 
L 2662 3475 
L 1190 1645 
L 1165 1645 
L 1165 5094 
L 589 5094 
L 589 0 
z
" transform="scale(0.015625)"/><path id="NotoSansCJKsc-Regular-6d" d="M 589 0 
L 1178 0 
L 1178 2522 
C 1491 2880 1786 3053 2048 3053 
C 2490 3053 2694 2778 2694 2125 
L 2694 0 
L 3277 0 
L 3277 2522 
C 3603 2880 3885 3053 4154 3053 
C 4595 3053 4800 2778 4800 2125 
L 4800 0 
L 5382 0 
L 5382 2202 
C 5382 3085 5043 3565 4333 3565 
C 3904 3565 3546 3290 3181 2899 
C 3040 3309 2758 3565 2221 3565 
C 1805 3565 1446 3302 1139 2970 
L 1126 2970 
L 1069 3475 
L 589 3475 
L 589 0 
z
" transform="scale(0.015625)"/><path id="NotoSansCJKsc-Regular-72" d="M 589 0 
L 1178 0 
L 1178 2234 
C 1408 2822 1760 3040 2048 3040 
C 2195 3040 2272 3021 2387 2982 
L 2496 3488 
C 2387 3546 2278 3565 2125 3565 
C 1741 3565 1382 3283 1139 2842 
L 1126 2842 
L 1069 3475 
L 589 3475 
L 589 0 
z
" transform="scale(0.015625)"/><path id="NotoSansCJKsc-Regular-73" d="M 1498 -83 
C 2317 -83 2758 384 2758 947 
C 2758 1606 2208 1811 1702 2003 
C 1312 2150 954 2278 954 2605 
C 954 2880 1158 3110 1600 3110 
C 1907 3110 2150 2976 2387 2803 
L 2669 3168 
C 2406 3386 2022 3565 1594 3565 
C 832 3565 397 3130 397 2579 
C 397 1984 922 1754 1408 1574 
C 1792 1434 2202 1267 2202 915 
C 2202 614 1978 371 1517 371 
C 1101 371 794 538 486 787 
L 205 397 
C 531 122 1005 -83 1498 -83 
z
" transform="scale(0.015625)"/><path id="NotoSansCJKsc-Regular-41" d="M 26 0 
L 621 0 
L 1075 1434 
L 2790 1434 
L 3238 0 
L 3866 0 
L 2272 4691 
L 1613 4691 
L 26 0 
z
M 1222 1901 
L 1453 2624 
C 1619 3155 1773 3661 1920 4211 
L 1946 4211 
C 2099 3667 2246 3155 2419 2624 
L 2643 1901 
L 1222 1901 
z
" transform="scale(0.015625)"/><path id="NotoSansCJKsc-Regular-4d" d="M 646 0 
L 1178 0 
L 1178 2598 
C 1178 3002 1139 3571 1101 3981 
L 1126 3981 
L 1504 2912 
L 2394 474 
L 2790 474 
L 3674 2912 
L 4051 3981 
L 4077 3981 
C 4045 3571 4000 3002 4000 2598 
L 4000 0 
L 4550 0 
L 4550 4691 
L 3840 4691 
L 2944 2182 
C 2835 1862 2739 1530 2618 1203 
L 2592 1203 
C 2477 1530 2374 1862 2253 2182 
L 1357 4691 
L 646 4691 
L 646 0 
z
" transform="scale(0.015625)"/><path id="NotoSansCJKsc-Regular-6f" d="M 1939 -83 
C 2790 -83 3546 582 3546 1734 
C 3546 2893 2790 3565 1939 3565 
C 1088 3565 333 2893 333 1734 
C 333 582 1088 -83 1939 -83 
z
M 1939 403 
C 1338 403 934 934 934 1734 
C 934 2534 1338 3072 1939 3072 
C 2541 3072 2950 2534 2950 1734 
C 2950 934 2541 403 1939 403 
z
" transform="scale(0.015625)"/><path id="DejaVuSansMono-3c" d="M 3578 3003 
L 922 2003 
L 3578 1013 
L 3578 441 
L 275 1747 
L 275 2266 
L 3578 3572 
L 3578 3003 
z
" transform="scale(0.015625)"/><path id="DejaVuSansMono-3e" d="M 275 3003 
L 275 3572 
L 3578 2266 
L 3578 1747 
L 275 441 
L 275 1013 
L 2931 2003 
L 275 3003 
z
" transform="scale(0.015625)"/><path id="DejaVuSansMono-6f" d="M 1925 3097 
Q 1488 3097 1263 2756 
Q 1038 2416 1038 1747 
Q 1038 1081 1263 739 
Q 1488 397 1925 397 
Q 2366 397 2591 739 
Q 2816 1081 2816 1747 
Q 2816 2416 2591 2756 
Q 2366 3097 1925 3097 
z
M 1925 3584 
Q 2653 3584 3039 3112 
Q 3425 2641 3425 1747 
Q 3425 850 3040 379 
Q 2656 -91 1925 -91 
Q 1197 -91 812 379 
Q 428 850 428 1747 
Q 428 2641 812 3112 
Q 1197 3584 1925 3584 
z
" transform="scale(0.015625)"/><path id="DejaVuSansMono-74" d="M 1919 4494 
L 1919 3500 
L 3225 3500 
L 3225 3053 
L 1919 3053 
L 1919 1153 
Q 1919 766 2066 612 
Q 2213 459 2578 459 
L 3225 459 
L 3225 0 
L 2522 0 
Q 1875 0 1609 259 
Q 1344 519 1344 1153 
L 1344 3053 
L 409 3053 
L 409 3500 
L 1344 3500 
L 1344 4494 
L 1919 4494 
z
" transform="scale(0.015625)"/><path id="DejaVuSansMono-4f" d="M 2828 2328 
Q 2828 3356 2617 3797 
Q 2406 4238 1925 4238 
Q 1447 4238 1236 3797 
Q 1025 3356 1025 2328 
Q 1025 1303 1236 862 
Q 1447 422 1925 422 
Q 2406 422 2617 861 
Q 2828 1300 2828 2328 
z
M 3488 2328 
Q 3488 1109 3102 509 
Q 2716 -91 1925 -91 
Q 1134 -91 750 506 
Q 366 1103 366 2328 
Q 366 3550 752 4150 
Q 1138 4750 1925 4750 
Q 2716 4750 3102 4150 
Q 3488 3550 3488 2328 
z
" transform="scale(0.015625)"/><path id="DejaVuSansMono-44" d="M 1363 519 
Q 2159 519 2475 911 
Q 2791 1303 2791 2328 
Q 2791 3363 2477 3755 
Q 2163 4147 1363 4147 
L 1063 4147 
L 1063 519 
L 1363 519 
z
M 1375 4666 
Q 2444 4666 2950 4097 
Q 3456 3528 3456 2328 
Q 3456 1134 2950 567 
Q 2444 0 1375 0 
L 428 0 
L 428 4666 
L 1375 4666 
z
" transform="scale(0.015625)"/><path id="DejaVuSansMono-4d" d="M 269 4666 
L 1113 4666 
L 1919 2291 
L 2731 4666 
L 3578 4666 
L 3578 0 
L 2994 0 
L 2994 4122 
L 2163 1663 
L 1684 1663 
L 850 4122 
L 850 0 
L 269 0 
L 269 4666 
z
" transform="scale(0.015625)"/><path id="DejaVuSansMono-52" d="M 2375 2203 
Q 2619 2141 2791 1967 
Q 2963 1794 3219 1275 
L 3853 0 
L 3175 0 
L 2619 1178 
Q 2378 1681 2186 1826 
Q 1994 1972 1684 1972 
L 1081 1972 
L 1081 0 
L 447 0 
L 447 4666 
L 1747 4666 
Q 2516 4666 2925 4319 
Q 3334 3972 3334 3316 
Q 3334 2853 3082 2561 
Q 2831 2269 2375 2203 
z
M 1081 4147 
L 1081 2491 
L 1772 2491 
Q 2225 2491 2447 2694 
Q 2669 2897 2669 3316 
Q 2669 3719 2433 3933 
Q 2197 4147 1747 4147 
L 1081 4147 
z
" transform="scale(0.015625)"/><path id="DejaVuSansMono-53" d="M 3163 4506 
L 3163 3866 
Q 2875 4050 2586 4144 
Q 2297 4238 2003 4238 
Q 1556 4238 1297 4030 
Q 1038 3822 1038 3469 
Q 1038 3159 1208 2996 
Q 1378 2834 1844 2725 
L 2175 2650 
Q 2831 2497 3131 2169 
Q 3431 1841 3431 1275 
Q 3431 609 3018 259 
Q 2606 -91 1819 -91 
Q 1491 -91 1159 -20 
Q 828 50 494 191 
L 494 863 
Q 853 634 1173 528 
Q 1494 422 1819 422 
Q 2297 422 2562 636 
Q 2828 850 2828 1234 
Q 2828 1584 2645 1768 
Q 2463 1953 2009 2053 
L 1672 2131 
Q 1022 2278 728 2575 
Q 434 2872 434 3372 
Q 434 3997 854 4373 
Q 1275 4750 1972 4750 
Q 2241 4750 2537 4689 
Q 2834 4628 3163 4506 
z
" transform="scale(0.015625)"/><path id="DejaVuSansMono-54" d="M 147 4666 
L 3706 4666 
L 3706 4134 
L 2247 4134 
L 2247 0 
L 1613 0 
L 1613 4134 
L 147 4134 
L 147 4666 
z
" transform="scale(0.015625)"/><path id="DejaVuSansMono-5f" d="M 3853 -1259 
L 3853 -1509 
L 0 -1509 
L 0 -1259 
L 3853 -1259 
z
" transform="scale(0.015625)"/><path id="DejaVuSansMono-63" d="M 3316 178 
Q 3084 44 2839 -23 
Q 2594 -91 2338 -91 
Q 1525 -91 1067 396 
Q 609 884 609 1747 
Q 609 2609 1067 3096 
Q 1525 3584 2338 3584 
Q 2591 3584 2831 3518 
Q 3072 3453 3316 3316 
L 3316 2713 
Q 3088 2916 2858 3006 
Q 2628 3097 2338 3097 
Q 1797 3097 1506 2747 
Q 1216 2397 1216 1747 
Q 1216 1100 1508 748 
Q 1800 397 2338 397 
Q 2638 397 2875 489 
Q 3113 581 3316 775 
L 3316 178 
z
" transform="scale(0.015625)"/><path id="DejaVuSansMono-69" d="M 800 3500 
L 2272 3500 
L 2272 447 
L 3413 447 
L 3413 0 
L 556 0 
L 556 447 
L 1697 447 
L 1697 3053 
L 800 3053 
L 800 3500 
z
M 1697 4863 
L 2272 4863 
L 2272 4134 
L 1697 4134 
L 1697 4863 
z
" transform="scale(0.015625)"/><path id="NotoSansCJKsc-Regular-28" d="M 1530 -1254 
L 1888 -1094 
C 1338 -186 1075 902 1075 1990 
C 1075 3072 1338 4154 1888 5069 
L 1530 5235 
C 941 4275 589 3245 589 1990 
C 589 730 941 -301 1530 -1254 
z
" transform="scale(0.015625)"/><path id="NotoSansCJKsc-Regular-29" d="M 634 -1254 
C 1222 -301 1574 730 1574 1990 
C 1574 3245 1222 4275 634 5235 
L 269 5069 
C 819 4154 1094 3072 1094 1990 
C 1094 902 819 -186 269 -1094 
L 634 -1254 
z
" transform="scale(0.015625)"/><path id="NotoSansCJKsc-Regular-2c" d="M 480 -1216 
C 1056 -973 1414 -493 1414 122 
C 1414 550 1229 806 922 806 
C 685 806 480 653 480 397 
C 480 141 678 -13 909 -13 
L 979 -6 
C 973 -390 736 -698 339 -870 
L 480 -1216 
z
" transform="scale(0.015625)"/></defs></svg>
