<svg xmlns="http://www.w3.org/2000/svg" viewBox="0 0 880 320" font-family="Noto Sans CJK SC,Microsoft YaHei,PingFang SC,Segoe UI,Helvetica,Arial,sans-serif"><defs><marker id="ab" markerWidth="10" markerHeight="10" refX="8" refY="3.2" orient="auto"><path d="M0,0 L8,3.2 L0,6.4 Z" fill="#2b6cb0"/></marker><marker id="ag" markerWidth="10" markerHeight="10" refX="8" refY="3.2" orient="auto"><path d="M0,0 L8,3.2 L0,6.4 Z" fill="#2f855a"/></marker></defs><rect width="880" height="320" fill="white"/><text x="24" y="30" font-size="17" fill="#1f2933" text-anchor="start" font-weight="700">两个归约轴：ar（axis=1，行内）vs ra（axis=0，跨行）</text><text x="24" y="52" font-size="12" fill="#52606d" text-anchor="start">输入矩阵 [D0, D1] = [78 行, 250 列]，下用 3×5 网格示意；紫色块 = 输出向量。</text><text x="40" y="86" font-size="13" fill="#2b6cb0" text-anchor="start" font-weight="700">ar：沿 D1（行内）归约 · 每行 → 1 标量 · 输出 [D0]（=78）</text><text x="171.0" y="101" font-size="10" fill="#9aa5b1" text-anchor="middle">D1（250 列）→</text><text x="84" y="156.0" font-size="10" fill="#9aa5b1" text-anchor="middle" transform="rotate(-90 84 156.0)">D0</text><rect x="96" y="108" width="30" height="30" fill="#dbeafe" stroke="#cdd5df" stroke-width="1"/><rect x="126" y="108" width="30" height="30" fill="#dbeafe" stroke="#cdd5df" stroke-width="1"/><rect x="156" y="108" width="30" height="30" fill="#dbeafe" stroke="#cdd5df" stroke-width="1"/><rect x="186" y="108" width="30" height="30" fill="#dbeafe" stroke="#cdd5df" stroke-width="1"/><rect x="216" y="108" width="30" height="30" fill="#dbeafe" stroke="#cdd5df" stroke-width="1"/><rect x="96" y="138" width="30" height="30" fill="#f7f9fc" stroke="#cdd5df" stroke-width="1"/><rect x="126" y="138" width="30" height="30" fill="#f7f9fc" stroke="#cdd5df" stroke-width="1"/><rect x="156" y="138" width="30" height="30" fill="#f7f9fc" stroke="#cdd5df" stroke-width="1"/><rect x="186" y="138" width="30" height="30" fill="#f7f9fc" stroke="#cdd5df" stroke-width="1"/><rect x="216" y="138" width="30" height="30" fill="#f7f9fc" stroke="#cdd5df" stroke-width="1"/><rect x="96" y="168" width="30" height="30" fill="#f7f9fc" stroke="#cdd5df" stroke-width="1"/><rect x="126" y="168" width="30" height="30" fill="#f7f9fc" stroke="#cdd5df" stroke-width="1"/><rect x="156" y="168" width="30" height="30" fill="#f7f9fc" stroke="#cdd5df" stroke-width="1"/><rect x="186" y="168" width="30" height="30" fill="#f7f9fc" stroke="#cdd5df" stroke-width="1"/><rect x="216" y="168" width="30" height="30" fill="#f7f9fc" stroke="#cdd5df" stroke-width="1"/><line x1="250" y1="123.0" x2="293" y2="123.0" stroke="#2b6cb0" stroke-width="2" marker-end="url(#ab)"/><rect x="296" y="109" width="30" height="28" rx="5" fill="#e9defa" stroke="#7e57c2" stroke-width="1.5"/><line x1="250" y1="153.0" x2="293" y2="153.0" stroke="#2b6cb0" stroke-width="2" marker-end="url(#ab)"/><rect x="296" y="139" width="30" height="28" rx="5" fill="#e9defa" stroke="#7e57c2" stroke-width="1.5"/><line x1="250" y1="183.0" x2="293" y2="183.0" stroke="#2b6cb0" stroke-width="2" marker-end="url(#ab)"/><rect x="296" y="169" width="30" height="28" rx="5" fill="#e9defa" stroke="#7e57c2" stroke-width="1.5"/><text x="311.0" y="216" font-size="12" fill="#7e57c2" text-anchor="middle" font-weight="700">[D0]</text><text x="40" y="242" font-size="11" fill="#52606d" text-anchor="start">· 每行向量内 ReduceMax → 标量；StoreUnAlign 拼标量流</text><text x="40" y="260" font-size="11" fill="#52606d" text-anchor="start">· 写法：baseline / unroll / pragma（binary 仅 reduce_sum）</text><text x="456" y="86" font-size="13" fill="#2f855a" text-anchor="start" font-weight="700">ra：沿 D0（跨行）归约 · 每列 → 1 值 · 输出 [D1]（=250）</text><text x="587.0" y="101" font-size="10" fill="#9aa5b1" text-anchor="middle">D1（250 列）→</text><text x="500" y="156.0" font-size="10" fill="#9aa5b1" text-anchor="middle" transform="rotate(-90 500 156.0)">D0</text><rect x="512" y="108" width="30" height="30" fill="#d1fae5" stroke="#cdd5df" stroke-width="1"/><rect x="542" y="108" width="30" height="30" fill="#f7f9fc" stroke="#cdd5df" stroke-width="1"/><rect x="572" y="108" width="30" height="30" fill="#f7f9fc" stroke="#cdd5df" stroke-width="1"/><rect x="602" y="108" width="30" height="30" fill="#f7f9fc" stroke="#cdd5df" stroke-width="1"/><rect x="632" y="108" width="30" height="30" fill="#f7f9fc" stroke="#cdd5df" stroke-width="1"/><rect x="512" y="138" width="30" height="30" fill="#d1fae5" stroke="#cdd5df" stroke-width="1"/><rect x="542" y="138" width="30" height="30" fill="#f7f9fc" stroke="#cdd5df" stroke-width="1"/><rect x="572" y="138" width="30" height="30" fill="#f7f9fc" stroke="#cdd5df" stroke-width="1"/><rect x="602" y="138" width="30" height="30" fill="#f7f9fc" stroke="#cdd5df" stroke-width="1"/><rect x="632" y="138" width="30" height="30" fill="#f7f9fc" stroke="#cdd5df" stroke-width="1"/><rect x="512" y="168" width="30" height="30" fill="#d1fae5" stroke="#cdd5df" stroke-width="1"/><rect x="542" y="168" width="30" height="30" fill="#f7f9fc" stroke="#cdd5df" stroke-width="1"/><rect x="572" y="168" width="30" height="30" fill="#f7f9fc" stroke="#cdd5df" stroke-width="1"/><rect x="602" y="168" width="30" height="30" fill="#f7f9fc" stroke="#cdd5df" stroke-width="1"/><rect x="632" y="168" width="30" height="30" fill="#f7f9fc" stroke="#cdd5df" stroke-width="1"/><line x1="527.0" y1="202" x2="527.0" y2="233" stroke="#2f855a" stroke-width="2" marker-end="url(#ag)"/><rect x="513" y="236" width="28" height="28" rx="5" fill="#e9defa" stroke="#7e57c2" stroke-width="1.5"/><line x1="557.0" y1="202" x2="557.0" y2="233" stroke="#2f855a" stroke-width="2" marker-end="url(#ag)"/><rect x="543" y="236" width="28" height="28" rx="5" fill="#e9defa" stroke="#7e57c2" stroke-width="1.5"/><line x1="587.0" y1="202" x2="587.0" y2="233" stroke="#2f855a" stroke-width="2" marker-end="url(#ag)"/><rect x="573" y="236" width="28" height="28" rx="5" fill="#e9defa" stroke="#7e57c2" stroke-width="1.5"/><line x1="617.0" y1="202" x2="617.0" y2="233" stroke="#2f855a" stroke-width="2" marker-end="url(#ag)"/><rect x="603" y="236" width="28" height="28" rx="5" fill="#e9defa" stroke="#7e57c2" stroke-width="1.5"/><line x1="647.0" y1="202" x2="647.0" y2="233" stroke="#2f855a" stroke-width="2" marker-end="url(#ag)"/><rect x="633" y="236" width="28" height="28" rx="5" fill="#e9defa" stroke="#7e57c2" stroke-width="1.5"/><text x="676" y="251.0" font-size="12" fill="#7e57c2" text-anchor="start" font-weight="700">[D1]</text><text x="456" y="288" font-size="11" fill="#52606d" text-anchor="start">· 跨行逐元素 Max（默认 ZEROING）；无向量内归约 → StoreAlign 整段</text><text x="456" y="306" font-size="11" fill="#52606d" text-anchor="start">· 写法：baseline / unroll / pragma（无 binary）</text><line x1="430" y1="74" x2="430" y2="310" stroke="#e3e8ee" stroke-width="1"/></svg>