<svg xmlns="http://www.w3.org/2000/svg" viewBox="0 0 900 372" font-family="Noto Sans CJK SC,Microsoft YaHei,PingFang SC,Segoe UI,Helvetica,Arial,sans-serif"><defs><marker id="a" markerWidth="9" markerHeight="9" refX="7.5" refY="3" orient="auto"><path d="M0,0 L7.5,3 L0,6 Z" fill="#1f2933"/></marker><marker id="ar" markerWidth="9" markerHeight="9" refX="7.5" refY="3" orient="auto"><path d="M0,0 L7.5,3 L0,6 Z" fill="#d64545"/></marker><marker id="ag" markerWidth="9" markerHeight="9" refX="7.5" refY="3" orient="auto"><path d="M0,0 L7.5,3 L0,6 Z" fill="#2f855a"/></marker><marker id="ab" markerWidth="9" markerHeight="9" refX="7.5" refY="3" orient="auto"><path d="M0,0 L7.5,3 L0,6 Z" fill="#2b6cb0"/></marker></defs><rect width="900" height="372" fill="white"/><text x="24" y="32" font-size="18" fill="#1f2933" text-anchor="start" font-weight="700">归约的两种组织方式（baseline 单路串行 vs unroll 多路并行，以 N=8 为例）</text><text x="24" y="52" font-size="12" fill="#52606d" text-anchor="start">红 = 最长串行路径（决定时延）。优化 = 缩短它。</text><text x="24" y="84" font-size="14" fill="#1f2933" text-anchor="start" font-weight="700">① baseline 单路串行顺序折叠　串行步数 = N = 8</text><rect x="64" y="96" width="50" height="24" rx="6" fill="#fbeec1" stroke="#caa83a" stroke-width="1.5"/><text x="89.0" y="112.2" text-anchor="middle" font-size="12" fill="#1f2933">c0</text><rect x="162" y="96" width="50" height="24" rx="6" fill="#fbeec1" stroke="#caa83a" stroke-width="1.5"/><text x="187.0" y="112.2" text-anchor="middle" font-size="12" fill="#1f2933">c1</text><rect x="260" y="96" width="50" height="24" rx="6" fill="#fbeec1" stroke="#caa83a" stroke-width="1.5"/><text x="285.0" y="112.2" text-anchor="middle" font-size="12" fill="#1f2933">c2</text><rect x="358" y="96" width="50" height="24" rx="6" fill="#fbeec1" stroke="#caa83a" stroke-width="1.5"/><text x="383.0" y="112.2" text-anchor="middle" font-size="12" fill="#1f2933">c3</text><rect x="456" y="96" width="50" height="24" rx="6" fill="#fbeec1" stroke="#caa83a" stroke-width="1.5"/><text x="481.0" y="112.2" text-anchor="middle" font-size="12" fill="#1f2933">c4</text><rect x="554" y="96" width="50" height="24" rx="6" fill="#fbeec1" stroke="#caa83a" stroke-width="1.5"/><text x="579.0" y="112.2" text-anchor="middle" font-size="12" fill="#1f2933">c5</text><rect x="652" y="96" width="50" height="24" rx="6" fill="#fbeec1" stroke="#caa83a" stroke-width="1.5"/><text x="677.0" y="112.2" text-anchor="middle" font-size="12" fill="#1f2933">c6</text><rect x="750" y="96" width="50" height="24" rx="6" fill="#fbeec1" stroke="#caa83a" stroke-width="1.5"/><text x="775.0" y="112.2" text-anchor="middle" font-size="12" fill="#1f2933">c7</text><rect x="64" y="152" width="50" height="24" rx="6" fill="#eef2f7" stroke="#7b8794" stroke-width="1.5"/><text x="89.0" y="167.85" text-anchor="middle" font-size="11" fill="#1f2933">acc</text><line x1="89.0" y1="120" x2="89.0" y2="152" stroke="#9aa5b1" stroke-width="1.3" marker-end="url(#a)"/><rect x="162" y="152" width="50" height="24" rx="6" fill="#eef2f7" stroke="#7b8794" stroke-width="1.5"/><text x="187.0" y="167.85" text-anchor="middle" font-size="11" fill="#1f2933">acc</text><line x1="187.0" y1="120" x2="187.0" y2="152" stroke="#9aa5b1" stroke-width="1.3" marker-end="url(#a)"/><line x1="114" y1="164.0" x2="162" y2="164.0" stroke="#d64545" stroke-width="2.2" marker-end="url(#ar)"/><rect x="260" y="152" width="50" height="24" rx="6" fill="#eef2f7" stroke="#7b8794" stroke-width="1.5"/><text x="285.0" y="167.85" text-anchor="middle" font-size="11" fill="#1f2933">acc</text><line x1="285.0" y1="120" x2="285.0" y2="152" stroke="#9aa5b1" stroke-width="1.3" marker-end="url(#a)"/><line x1="212" y1="164.0" x2="260" y2="164.0" stroke="#d64545" stroke-width="2.2" marker-end="url(#ar)"/><rect x="358" y="152" width="50" height="24" rx="6" fill="#eef2f7" stroke="#7b8794" stroke-width="1.5"/><text x="383.0" y="167.85" text-anchor="middle" font-size="11" fill="#1f2933">acc</text><line x1="383.0" y1="120" x2="383.0" y2="152" stroke="#9aa5b1" stroke-width="1.3" marker-end="url(#a)"/><line x1="310" y1="164.0" x2="358" y2="164.0" stroke="#d64545" stroke-width="2.2" marker-end="url(#ar)"/><rect x="456" y="152" width="50" height="24" rx="6" fill="#eef2f7" stroke="#7b8794" stroke-width="1.5"/><text x="481.0" y="167.85" text-anchor="middle" font-size="11" fill="#1f2933">acc</text><line x1="481.0" y1="120" x2="481.0" y2="152" stroke="#9aa5b1" stroke-width="1.3" marker-end="url(#a)"/><line x1="408" y1="164.0" x2="456" y2="164.0" stroke="#d64545" stroke-width="2.2" marker-end="url(#ar)"/><rect x="554" y="152" width="50" height="24" rx="6" fill="#eef2f7" stroke="#7b8794" stroke-width="1.5"/><text x="579.0" y="167.85" text-anchor="middle" font-size="11" fill="#1f2933">acc</text><line x1="579.0" y1="120" x2="579.0" y2="152" stroke="#9aa5b1" stroke-width="1.3" marker-end="url(#a)"/><line x1="506" y1="164.0" x2="554" y2="164.0" stroke="#d64545" stroke-width="2.2" marker-end="url(#ar)"/><rect x="652" y="152" width="50" height="24" rx="6" fill="#eef2f7" stroke="#7b8794" stroke-width="1.5"/><text x="677.0" y="167.85" text-anchor="middle" font-size="11" fill="#1f2933">acc</text><line x1="677.0" y1="120" x2="677.0" y2="152" stroke="#9aa5b1" stroke-width="1.3" marker-end="url(#a)"/><line x1="604" y1="164.0" x2="652" y2="164.0" stroke="#d64545" stroke-width="2.2" marker-end="url(#ar)"/><rect x="750" y="152" width="50" height="24" rx="6" fill="#eef2f7" stroke="#7b8794" stroke-width="1.5"/><text x="775.0" y="167.85" text-anchor="middle" font-size="11" fill="#1f2933">acc</text><line x1="775.0" y1="120" x2="775.0" y2="152" stroke="#9aa5b1" stroke-width="1.3" marker-end="url(#a)"/><line x1="702" y1="164.0" x2="750" y2="164.0" stroke="#d64545" stroke-width="2.2" marker-end="url(#ar)"/><rect x="830" y="152" width="56" height="24" rx="6" fill="#e9defa" stroke="#7e57c2" stroke-width="1.5"/><text x="858.0" y="167.85" text-anchor="middle" font-size="11" fill="#1f2933">ReduceMax</text><line x1="800" y1="164.0" x2="830" y2="164.0" stroke="#d64545" stroke-width="2.2" marker-end="url(#ar)"/><text x="24" y="212" font-size="14" fill="#1f2933" text-anchor="start" font-weight="700">② unroll 多路并行（×4）　4 路独立、最后合并　串行步数 ≈ N/4 + log2(4) = 4</text><rect x="60" y="234" width="52" height="24" rx="6" fill="#eef2f7" stroke="#2b6cb0" stroke-width="1.5"/><text x="86.0" y="249.85" text-anchor="middle" font-size="11" fill="#2b6cb0">acc0</text><rect x="150" y="234" width="54" height="24" rx="6" fill="#fbeec1" stroke="#caa83a" stroke-width="1.5"/><text x="177.0" y="249.85" text-anchor="middle" font-size="11" fill="#1f2933">max c0</text><rect x="250" y="234" width="54" height="24" rx="6" fill="#fbeec1" stroke="#caa83a" stroke-width="1.5"/><text x="277.0" y="249.85" text-anchor="middle" font-size="11" fill="#1f2933">max c4</text><line x1="112" y1="246" x2="150" y2="246" stroke="#d64545" stroke-width="2" marker-end="url(#ar)"/><line x1="204" y1="246" x2="250" y2="246" stroke="#d64545" stroke-width="2" marker-end="url(#ar)"/><rect x="60" y="268" width="52" height="24" rx="6" fill="#eef2f7" stroke="#2b6cb0" stroke-width="1.5"/><text x="86.0" y="283.85" text-anchor="middle" font-size="11" fill="#2b6cb0">acc1</text><rect x="150" y="268" width="54" height="24" rx="6" fill="#fbeec1" stroke="#caa83a" stroke-width="1.5"/><text x="177.0" y="283.85" text-anchor="middle" font-size="11" fill="#1f2933">max c1</text><rect x="250" y="268" width="54" height="24" rx="6" fill="#fbeec1" stroke="#caa83a" stroke-width="1.5"/><text x="277.0" y="283.85" text-anchor="middle" font-size="11" fill="#1f2933">max c5</text><line x1="112" y1="280" x2="150" y2="280" stroke="#d64545" stroke-width="2" marker-end="url(#ar)"/><line x1="204" y1="280" x2="250" y2="280" stroke="#d64545" stroke-width="2" marker-end="url(#ar)"/><rect x="60" y="302" width="52" height="24" rx="6" fill="#eef2f7" stroke="#2b6cb0" stroke-width="1.5"/><text x="86.0" y="317.85" text-anchor="middle" font-size="11" fill="#2b6cb0">acc2</text><rect x="150" y="302" width="54" height="24" rx="6" fill="#fbeec1" stroke="#caa83a" stroke-width="1.5"/><text x="177.0" y="317.85" text-anchor="middle" font-size="11" fill="#1f2933">max c2</text><rect x="250" y="302" width="54" height="24" rx="6" fill="#fbeec1" stroke="#caa83a" stroke-width="1.5"/><text x="277.0" y="317.85" text-anchor="middle" font-size="11" fill="#1f2933">max c6</text><line x1="112" y1="314" x2="150" y2="314" stroke="#d64545" stroke-width="2" marker-end="url(#ar)"/><line x1="204" y1="314" x2="250" y2="314" stroke="#d64545" stroke-width="2" marker-end="url(#ar)"/><rect x="60" y="336" width="52" height="24" rx="6" fill="#eef2f7" stroke="#2b6cb0" stroke-width="1.5"/><text x="86.0" y="351.85" text-anchor="middle" font-size="11" fill="#2b6cb0">acc3</text><rect x="150" y="336" width="54" height="24" rx="6" fill="#fbeec1" stroke="#caa83a" stroke-width="1.5"/><text x="177.0" y="351.85" text-anchor="middle" font-size="11" fill="#1f2933">max c3</text><rect x="250" y="336" width="54" height="24" rx="6" fill="#fbeec1" stroke="#caa83a" stroke-width="1.5"/><text x="277.0" y="351.85" text-anchor="middle" font-size="11" fill="#1f2933">max c7</text><line x1="112" y1="348" x2="150" y2="348" stroke="#d64545" stroke-width="2" marker-end="url(#ar)"/><line x1="204" y1="348" x2="250" y2="348" stroke="#d64545" stroke-width="2" marker-end="url(#ar)"/><line x1="304" y1="246" x2="336" y2="246" stroke="#2b6cb0" stroke-width="1.6"/><line x1="304" y1="280" x2="336" y2="280" stroke="#2b6cb0" stroke-width="1.6"/><line x1="304" y1="314" x2="336" y2="314" stroke="#2b6cb0" stroke-width="1.6"/><line x1="304" y1="348" x2="336" y2="348" stroke="#2b6cb0" stroke-width="1.6"/><line x1="336" y1="246" x2="336" y2="348" stroke="#2b6cb0" stroke-width="1.6"/><rect x="400" y="284.0" width="70" height="26" rx="6" fill="#eef2f7" stroke="#2b6cb0" stroke-width="1.5"/><text x="435.0" y="300.85" text-anchor="middle" font-size="11" fill="#2b6cb0">两两合并</text><line x1="336" y1="297.0" x2="400" y2="297.0" stroke="#d64545" stroke-width="2.2" marker-end="url(#ar)"/><rect x="495" y="284.0" width="56" height="26" rx="6" fill="#e9defa" stroke="#7e57c2" stroke-width="1.5"/><text x="523.0" y="300.85" text-anchor="middle" font-size="11" fill="#1f2933">ReduceMax</text><line x1="470" y1="297.0" x2="495" y2="297.0" stroke="#d64545" stroke-width="2.2" marker-end="url(#ar)"/></svg>