<svg xmlns="http://www.w3.org/2000/svg" width="1360" height="500" viewBox="0 0 1360 500" font-family="PingFang SC, Noto Sans CJK SC, sans-serif"><text x="680.0" y="64" font-size="24" fill="#3D3D3A" font-weight="800" text-anchor="middle">总共 100 个元素 · 寄存器一次处理 64 个 · UpdateMask 自动生成掩码</text><defs><pattern id="hatch" width="10" height="10" patternUnits="userSpaceOnUse" patternTransform="rotate(45)"><rect width="10" height="10" fill="#F0F0EF"/><line x1="0" y1="0" x2="0" y2="10" stroke="#CFCEC9" stroke-width="3"/></pattern></defs><text x="200" y="182.0" font-size="16" fill="#3C3489" font-weight="700" text-anchor="end">寄存器</text><rect x="230" y="150" width="760.0" height="52" rx="8" fill="#EEEDFE" stroke="#534AB7" stroke-width="2"/><line x1="325.0" y1="150" x2="325.0" y2="202" stroke="#FFFFFF" stroke-width="1" opacity="0.7"/><line x1="420.0" y1="150" x2="420.0" y2="202" stroke="#FFFFFF" stroke-width="1" opacity="0.7"/><line x1="515.0" y1="150" x2="515.0" y2="202" stroke="#FFFFFF" stroke-width="1" opacity="0.7"/><line x1="610.0" y1="150" x2="610.0" y2="202" stroke="#FFFFFF" stroke-width="1" opacity="0.7"/><line x1="705.0" y1="150" x2="705.0" y2="202" stroke="#FFFFFF" stroke-width="1" opacity="0.7"/><line x1="800.0" y1="150" x2="800.0" y2="202" stroke="#FFFFFF" stroke-width="1" opacity="0.7"/><line x1="895.0" y1="150" x2="895.0" y2="202" stroke="#FFFFFF" stroke-width="1" opacity="0.7"/><text x="200" y="241.0" font-size="16" fill="#73726C" font-weight="700" text-anchor="end">mask</text><rect x="230" y="220" width="760.0" height="30" rx="6" fill="#FBE7DD" stroke="#D85A30" stroke-width="1.8"/><text x="610.0" y="241.0" font-size="15" fill="#B5471F" font-weight="700" text-anchor="middle">1 · 生效</text><text x="1030" y="174.0" font-size="19" fill="#3D3D3A" font-weight="700" text-anchor="start">第一轮</text><text x="1030" y="200.0" font-size="15" fill="#73726C" font-weight="400" text-anchor="start">remain = 100 ≥ 64</text><text x="1030" y="220.0" font-size="15" fill="#73726C" font-weight="400" text-anchor="start">→ mask 全 1，整宽 64 个全部参与</text><text x="200" y="372.0" font-size="16" fill="#3C3489" font-weight="700" text-anchor="end">寄存器</text><rect x="230" y="340" width="427.5" height="52" rx="8" fill="#EEEDFE" stroke="#534AB7" stroke-width="2"/><rect x="657.5" y="340" width="332.5" height="52" rx="8" fill="url(#hatch)" stroke="#B9B8B3" stroke-width="1.6"/><line x1="325.0" y1="340" x2="325.0" y2="392" stroke="#FFFFFF" stroke-width="1" opacity="0.7"/><line x1="420.0" y1="340" x2="420.0" y2="392" stroke="#FFFFFF" stroke-width="1" opacity="0.7"/><line x1="515.0" y1="340" x2="515.0" y2="392" stroke="#FFFFFF" stroke-width="1" opacity="0.7"/><line x1="610.0" y1="340" x2="610.0" y2="392" stroke="#FFFFFF" stroke-width="1" opacity="0.7"/><line x1="705.0" y1="340" x2="705.0" y2="392" stroke="#FFFFFF" stroke-width="1" opacity="0.7"/><line x1="800.0" y1="340" x2="800.0" y2="392" stroke="#FFFFFF" stroke-width="1" opacity="0.7"/><line x1="895.0" y1="340" x2="895.0" y2="392" stroke="#FFFFFF" stroke-width="1" opacity="0.7"/><line x1="657.5" y1="328" x2="657.5" y2="404" stroke="#D85A30" stroke-width="2"/><text x="657.5" y="322" font-size="15" fill="#D85A30" font-weight="700" text-anchor="middle">36</text><text x="200" y="431.0" font-size="16" fill="#73726C" font-weight="700" text-anchor="end">mask</text><rect x="230" y="410" width="427.5" height="30" rx="6" fill="#FBE7DD" stroke="#D85A30" stroke-width="1.8"/><text x="443.75" y="431.0" font-size="15" fill="#B5471F" font-weight="700" text-anchor="middle">1 · 生效</text><rect x="657.5" y="410" width="332.5" height="30" rx="6" fill="#F0F0EF" stroke="#B9B8B3" stroke-width="1.6"/><text x="823.75" y="431.0" font-size="15" fill="#8A897F" font-weight="700" text-anchor="middle">0 · 屏蔽</text><text x="1030" y="364.0" font-size="19" fill="#3D3D3A" font-weight="700" text-anchor="start">最后一轮（尾块）</text><text x="1030" y="390.0" font-size="15" fill="#73726C" font-weight="400" text-anchor="start">remain = 36 &lt; 64</text><text x="1030" y="410.0" font-size="15" fill="#73726C" font-weight="400" text-anchor="start">→ 仅前 36 个生效，其余不越界</text></svg>