<svg xmlns="http://www.w3.org/2000/svg" width="1360" height="470" viewBox="0 0 1360 470" font-family="PingFang SC, Noto Sans CJK SC, sans-serif"><rect x="270" y="60" width="840" height="66" rx="12" fill="#E1F5EE" stroke="#0F6E56" stroke-width="2.4"/><text x="690.0" y="101.0" font-size="24" fill="#085041" font-weight="700" text-anchor="middle">UB (Unified Buffer)</text><rect x="310.0" y="188.0" width="120" height="48" rx="10" fill="#EEEDFE" stroke="#534AB7" stroke-width="2.2"/><text x="370" y="219" font-size="19" fill="#3C3489" font-weight="700" text-anchor="middle">xReg</text><rect x="470.0" y="188.0" width="120" height="48" rx="10" fill="#EEEDFE" stroke="#534AB7" stroke-width="2.2"/><text x="530" y="219" font-size="19" fill="#3C3489" font-weight="700" text-anchor="middle">yReg</text><rect x="740.0" y="188.0" width="120" height="48" rx="10" fill="#EEEDFE" stroke="#534AB7" stroke-width="2.2"/><text x="800" y="219" font-size="19" fill="#3C3489" font-weight="700" text-anchor="middle">zReg</text><rect x="402.0" y="295.0" width="96" height="54" rx="10" fill="#FBE7DD" stroke="#D85A30" stroke-width="2.2"/><text x="450" y="329" font-size="20" fill="#B5471F" font-weight="700" text-anchor="middle">Mul</text><rect x="579.0" y="298.0" width="132" height="48" rx="10" fill="#EEEDFE" stroke="#534AB7" stroke-width="2.2"/><text x="645" y="319" font-size="19" fill="#3C3489" font-weight="700" text-anchor="middle">tmpReg</text><text x="645" y="341" font-size="14" fill="#3C3489" font-weight="400" text-anchor="middle">x · y</text><rect x="752.0" y="295.0" width="96" height="54" rx="10" fill="#FBE7DD" stroke="#D85A30" stroke-width="2.2"/><text x="800" y="329" font-size="20" fill="#B5471F" font-weight="700" text-anchor="middle">Add</text><rect x="920.0" y="298.0" width="140" height="48" rx="10" fill="#EEEDFE" stroke="#534AB7" stroke-width="2.2"/><text x="990" y="319" font-size="19" fill="#3C3489" font-weight="700" text-anchor="middle">zReg</text><text x="990" y="341" font-size="14" fill="#3C3489" font-weight="400" text-anchor="middle">x·y + z</text><line x1="370.0" y1="126.0" x2="370.0" y2="173.0" stroke="#D85A30" stroke-width="3.0" stroke-linecap="round"/><polygon points="370.0,185.0 364.5,173.0 375.5,173.0" fill="#D85A30"/><circle cx="370" cy="126" r="6" fill="#D85A30"/><line x1="530.0" y1="126.0" x2="530.0" y2="173.0" stroke="#D85A30" stroke-width="3.0" stroke-linecap="round"/><polygon points="530.0,185.0 524.5,173.0 535.5,173.0" fill="#D85A30"/><circle cx="530" cy="126" r="6" fill="#D85A30"/><line x1="800.0" y1="126.0" x2="800.0" y2="173.0" stroke="#D85A30" stroke-width="3.0" stroke-linecap="round"/><polygon points="800.0,185.0 794.5,173.0 805.5,173.0" fill="#D85A30"/><circle cx="800" cy="126" r="6" fill="#D85A30"/><text x="298.0" y="163.0" font-size="15" fill="#D85A30" font-weight="700" text-anchor="end">Load</text><line x1="990.0" y1="295.0" x2="990.0" y2="141.0" stroke="#D85A30" stroke-width="3.0" stroke-linecap="round"/><polygon points="990.0,129.0 995.5,141.0 984.5,141.0" fill="#D85A30"/><circle cx="990" cy="295.0" r="6" fill="#D85A30"/><text x="1072" y="218.0" font-size="15" fill="#D85A30" font-weight="700" text-anchor="start">Store</text><line x1="370.0" y1="236.0" x2="413.3" y2="284.5" stroke="#73726C" stroke-width="2.4" stroke-linecap="round"/><polygon points="420.0,292.0 409.9,287.6 416.8,281.5" fill="#73726C"/><line x1="530.0" y1="236.0" x2="486.7" y2="284.5" stroke="#73726C" stroke-width="2.4" stroke-linecap="round"/><polygon points="480.0,292.0 483.2,281.5 490.1,287.6" fill="#73726C"/><line x1="498.0" y1="322.0" x2="569.0" y2="322.0" stroke="#73726C" stroke-width="2.4" stroke-linecap="round"/><polygon points="579.0,322.0 569.0,326.6 569.0,317.4" fill="#73726C"/><line x1="711.0" y1="322.0" x2="742.0" y2="322.0" stroke="#73726C" stroke-width="2.4" stroke-linecap="round"/><polygon points="752.0,322.0 742.0,326.6 742.0,317.4" fill="#73726C"/><line x1="800.0" y1="236.0" x2="800.0" y2="285.0" stroke="#73726C" stroke-width="2.4" stroke-linecap="round"/><polygon points="800.0,295.0 795.4,285.0 804.6,285.0" fill="#73726C"/><line x1="848.0" y1="322.0" x2="910.0" y2="322.0" stroke="#73726C" stroke-width="2.4" stroke-linecap="round"/><polygon points="920.0,322.0 910.0,326.6 910.0,317.4" fill="#73726C"/><line x1="645" y1="348.0" x2="645" y2="400" stroke="#D85A30" stroke-width="2" stroke-dasharray="4 5"/><circle cx="645" cy="400" r="4" fill="#D85A30"/><text x="645" y="428" font-size="17" fill="#D85A30" font-weight="700" text-anchor="middle">中间结果 tmp 全程留在寄存器，不回 UB —— RegBase 省搬运的关键</text></svg>