<svg xmlns="http://www.w3.org/2000/svg" width="1360" height="470" viewBox="0 0 1360 470" font-family="PingFang SC, Noto Sans CJK SC, sans-serif"><text x="330" y="70" font-size="22" fill="#3D3D3A" font-weight="800" text-anchor="middle">底层关系</text><rect x="110" y="300" width="440" height="74" rx="12" fill="#EEEDFE" stroke="#534AB7" stroke-width="2.4"/><text x="330.0" y="345.0" font-size="21" fill="#3C3489" font-weight="700" text-anchor="middle">Vector Function（RegBase）</text><rect x="180" y="200" width="300" height="64" rx="12" fill="#E1F5EE" stroke="#0F6E56" stroke-width="2.4"/><text x="330.0" y="240.0" font-size="21" fill="#085041" font-weight="700" text-anchor="middle">MemBase API</text><text x="330.0" y="186" font-size="14" fill="#73726C" font-weight="400" text-anchor="middle">兼容前代接口</text><line x1="330.0" y1="264.0" x2="330.0" y2="287.0" stroke="#73726C" stroke-width="2.4" stroke-linecap="round"/><polygon points="330.0,298.0 324.9,287.0 335.1,287.0" fill="#73726C"/><text x="388.0" y="287.0" font-size="14" fill="#73726C" font-weight="400" text-anchor="start">由 VF 封装</text><text x="330" y="415" font-size="16" fill="#73726C" font-weight="400" text-anchor="middle">底层都是 VF · 可混用 · 可渐进式迁移</text><line x1="640" y1="60" x2="640" y2="420" stroke="#D8D7D2" stroke-width="2" stroke-dasharray="6 8"/><text x="1010" y="70" font-size="22" fill="#3D3D3A" font-weight="800" text-anchor="middle">性能阶梯</text><rect x="720" y="350" width="180" height="52" rx="10" fill="#E1F5EE" stroke="#0F6E56" stroke-width="2.2"/><text x="810.0" y="383.0" font-size="18" fill="#085041" font-weight="700" text-anchor="middle">MemBase API</text><rect x="905" y="285" width="210" height="52" rx="10" fill="#E1F5EE" stroke="#0F6E56" stroke-width="2.2"/><text x="1010.0" y="309.0" font-size="18" fill="#085041" font-weight="700" text-anchor="middle">MemBase</text><text x="1010.0" y="329.0" font-size="13" fill="#085041" font-weight="400" text-anchor="middle">+ 编译期自动 VF 融合</text><rect x="1120" y="224" width="190" height="56" rx="10" fill="#EEEDFE" stroke="#534AB7" stroke-width="2.2"/><text x="1215.0" y="250.0" font-size="18" fill="#3C3489" font-weight="700" text-anchor="middle">直接写 VF</text><text x="1215.0" y="270.0" font-size="13" fill="#3C3489" font-weight="400" text-anchor="middle">RegBase · 性能更高</text><line x1="700.0" y1="358.0" x2="1311.9" y2="128.9" stroke="#D85A30" stroke-width="3.2" stroke-linecap="round"/><polygon points="1325.0,124.0 1314.1,134.9 1309.6,122.9" fill="#D85A30"/><text x="1305" y="104" font-size="17" fill="#D85A30" font-weight="700" text-anchor="end">性能上限 ↑</text><text x="1010" y="442" font-size="17" fill="#3D3D3A" font-weight="700" text-anchor="middle">建议优先选择 RegBase 实现算子</text></svg>